<svg width="18" height="19" viewBox="0 0 18 19" fill="none" xmlns="http://www.w3.org/2000/svg">
<path d="M15.7176 0.000170904C15.5244 0.00850139 15.3418 0.0911792 15.208 0.230937C15.0743 0.370694 14.9997 0.556724 14.9998 0.750171C14.9998 1.13634 14.9379 1.19116 14.7801 1.30974C14.6223 1.42833 14.2743 1.55074 13.8104 1.65544C12.8882 1.8636 11.5115 2.01223 10.535 3.09392C9.801 3.83495 9.28545 4.75453 9.08774 5.73064C9.08774 5.73162 9.08774 5.73259 9.08774 5.73357C9.02507 6.04933 9.05528 6.32923 9.0643 6.61833C8.53644 6.86797 8.00194 7.11952 7.54672 7.57341C7.54574 7.57439 7.54477 7.57536 7.54379 7.57634C7.07602 8.04555 6.76846 8.61884 6.50375 9.20232C5.27081 9.2979 4.1802 9.56227 3.45688 10.1545C2.6189 10.8405 2.13432 11.7505 1.8016 12.6447C1.46889 13.5389 1.27407 14.4357 1.0516 15.1701C0.829136 15.9044 0.571367 16.4401 0.289886 16.6847C0.175192 16.7847 0.0936207 16.9172 0.056001 17.0647C0.0183812 17.2121 0.0264919 17.3675 0.0792568 17.5102C0.132022 17.6529 0.226945 17.7762 0.351426 17.8638C0.475907 17.9513 0.624059 17.9988 0.776214 18.0002C0.776214 18.0002 4.56108 18.0236 5.41684 18.0236C6.66732 18.0236 7.94786 17.4877 8.9559 16.4797C8.9559 16.4787 8.9559 16.4777 8.9559 16.4767C9.39092 16.0404 9.62589 15.5267 9.87289 15.0207C9.89094 15.0211 9.89807 15.0236 9.91684 15.0236C11.1673 15.0236 12.4479 14.4877 13.4559 13.4797C13.4559 13.4787 13.4559 13.4777 13.4559 13.4767C14.4576 12.4735 14.9005 11.2026 14.9032 9.95818C15.4444 9.70789 15.9904 9.44377 16.4559 8.97966C17.395 8.04053 17.9271 6.86314 17.994 5.69255C17.9944 5.67888 17.9944 5.66521 17.994 5.65154C17.994 3.67694 17.5987 2.32876 17.1707 1.46208C16.7428 0.595472 16.2069 0.155444 16.2069 0.155444C16.0671 0.0477575 15.8939 -0.00722173 15.7176 0.000170904ZM15.8348 2.18279C16.1467 2.8269 16.4819 3.90022 16.4881 5.61931C16.441 6.38864 16.0862 7.22431 15.3954 7.91619C14.966 8.34423 14.4804 8.63377 13.9715 8.8156C13.8112 8.87288 13.6752 8.98296 13.5858 9.12777C13.4963 9.27259 13.4588 9.44351 13.4793 9.61248C13.5891 10.5084 13.2435 11.5697 12.3954 12.4191C11.6484 13.1661 10.7334 13.5236 9.91684 13.5236C9.85031 13.5236 9.7472 13.5098 9.59457 13.4914C9.42525 13.471 9.25404 13.509 9.10917 13.599C8.96431 13.689 8.85445 13.8257 8.7977 13.9865C8.618 14.4954 8.32688 14.9863 7.89535 15.4191C7.1484 16.1661 6.23336 16.5236 5.41684 16.5236C4.80517 16.5236 3.11765 16.5128 1.99203 16.506C2.13097 16.1903 2.38628 15.9396 2.48715 15.6066C2.73475 14.7893 2.92482 13.9269 3.20785 13.1662C3.49089 12.4055 3.85451 11.7662 4.4061 11.3146C4.95769 10.863 5.72107 10.5529 6.98715 10.5529C7.14148 10.553 7.29209 10.5056 7.41844 10.417C7.5448 10.3284 7.64075 10.2029 7.69321 10.0578C7.87757 9.54801 8.19331 9.04918 8.60727 8.63396C9.04124 8.20219 9.53603 7.91006 10.0487 7.72869C10.2095 7.67194 10.3462 7.56207 10.4362 7.41721C10.5262 7.27235 10.5642 7.10114 10.5438 6.93181C10.5051 6.61329 10.5008 6.31915 10.5584 6.02654V6.02361C10.6928 5.36281 11.0656 4.67685 11.6073 4.13396C11.6173 4.1235 11.6271 4.11276 11.6366 4.10173C12.1591 3.51385 13.1072 3.35375 14.1414 3.12029C14.6586 3.00355 15.1983 2.87188 15.6825 2.50798C15.7722 2.44057 15.7565 2.26885 15.8348 2.18279ZM14.1004 4.50017C13.8702 4.49592 13.6184 4.55486 13.3681 4.67157C13.1178 4.78829 12.877 4.95903 12.6678 5.16814C12.5039 5.33214 12.3631 5.51605 12.2534 5.70935C12.1438 5.90265 12.0675 6.10156 12.0289 6.29472C11.9902 6.48788 11.99 6.67151 12.0283 6.83511C12.0665 6.99871 12.1425 7.13909 12.2518 7.24822C12.3609 7.35754 12.5013 7.43349 12.6649 7.47175C12.8285 7.51001 13.0121 7.50981 13.2053 7.47118C13.3985 7.43255 13.5974 7.35623 13.7907 7.2466C13.984 7.13696 14.1679 6.99615 14.3319 6.8322C14.4958 6.6682 14.6366 6.4843 14.7463 6.29099C14.8559 6.09769 14.9322 5.89878 14.9708 5.70562C15.0095 5.51246 15.0097 5.32883 14.9714 5.16523C14.9332 5.00163 14.8572 4.86125 14.7479 4.75212C14.5886 4.59253 14.3639 4.50507 14.1004 4.50017ZM11.1004 9.00017C10.8702 8.99592 10.6184 9.05486 10.3681 9.17157C10.1178 9.28829 9.87698 9.45903 9.66782 9.66814C9.50388 9.83214 9.36307 10.016 9.25344 10.2093C9.1438 10.4026 9.06749 10.6016 9.02886 10.7947C8.99023 10.9879 8.99003 11.1715 9.02828 11.3351C9.06654 11.4987 9.14249 11.6391 9.2518 11.7482C9.36093 11.8575 9.5013 11.9335 9.6649 11.9717C9.82851 12.01 10.0121 12.0098 10.2053 11.9712C10.3985 11.9325 10.5974 11.8562 10.7907 11.7466C10.984 11.637 11.1679 11.4961 11.3319 11.3322C11.4958 11.1682 11.6366 10.9843 11.7463 10.791C11.8559 10.5977 11.9322 10.3988 11.9708 10.2056C12.0095 10.0125 12.0097 9.82884 11.9714 9.66523C11.9332 9.50163 11.8572 9.36125 11.7479 9.25212C11.5886 9.09253 11.3639 9.00507 11.1004 9.00017ZM6.60043 12.0002C6.37023 11.9959 6.11841 12.0549 5.86809 12.1716C5.61777 12.2883 5.37698 12.459 5.16782 12.6681C5.00388 12.8321 4.86307 13.016 4.75344 13.2093C4.6438 13.4026 4.56749 13.6016 4.52886 13.7947C4.49023 13.9879 4.49003 14.1715 4.52828 14.3351C4.56654 14.4987 4.64249 14.6391 4.7518 14.7482C4.86093 14.8575 5.0013 14.9335 5.1649 14.9717C5.32851 15.01 5.51213 15.0098 5.70529 14.9712C5.89845 14.9325 6.09737 14.8562 6.29067 14.7466C6.48397 14.637 6.66788 14.4961 6.83188 14.3322C6.99582 14.1682 7.13662 13.9843 7.24626 13.791C7.35589 13.5977 7.4322 13.3988 7.47084 13.2056C7.50947 13.0125 7.50966 12.8288 7.47141 12.6652C7.43316 12.5016 7.35721 12.3613 7.24789 12.2521C7.08863 12.0925 6.86388 12.0051 6.60043 12.0002Z" fill="#fff"/>
</svg>
