<svg width="22" height="22" viewBox="0 0 22 22" fill="none" xmlns="http://www.w3.org/2000/svg">
<path d="M14.9497 0.263184L14.3557 0.31653C13.4672 0.396484 12.4806 0.80013 11.5922 1.46095C10.7037 2.12176 9.91441 3.05641 9.57335 4.24006C9.5176 4.43306 9.47767 4.62012 9.44797 4.80401C9.35447 4.66474 9.26246 4.52345 9.15921 4.39756L8.76532 3.91744L8.27012 4.29087C6.87806 5.33809 5.31421 6.6482 4.90502 8.97777C4.85167 9.25394 4.82906 9.51624 4.81889 9.77162C4.70635 9.59688 4.59079 9.40592 4.48454 9.25847L4.14258 8.78216L3.63471 9.07557C2.07552 9.97607 0.725866 11.3848 0.339265 13.6685C0.0742667 15.2258 0.538537 16.4489 1.15996 17.2389C1.47067 17.6339 1.81462 17.9259 2.13137 18.1318C2.44405 18.3351 2.68455 18.4607 3.01666 18.5002C3.22294 18.5281 3.38451 18.5001 3.53972 18.4506C3.48978 18.6058 3.46228 18.7682 3.49033 18.9765C3.52978 19.3098 3.6558 19.5506 3.85888 19.8643C4.06426 20.1817 4.35674 20.526 4.7505 20.8373C5.53803 21.4598 6.75562 21.9251 8.30812 21.6616C10.5883 21.2762 11.9913 19.9085 12.8878 18.3579L13.1829 17.8473L12.7054 17.5031C12.5494 17.3909 12.349 17.2676 12.1621 17.1475C12.4343 17.1376 12.7151 17.1152 13.0144 17.0611H13.0157C15.3015 16.6755 16.5609 15.16 17.6587 13.7117L18.0501 13.1947L17.5359 12.801C17.4227 12.7143 17.3032 12.6332 17.1825 12.5533C17.3373 12.5279 17.4947 12.4964 17.6562 12.4529C18.8146 12.1423 19.7392 11.3725 20.4096 10.5096C21.0799 9.64665 21.5099 8.69181 21.6393 7.84224L21.6406 7.83462L21.7369 7.09031L21.1315 6.97853C21.1315 6.97853 20.3305 6.8235 19.1722 6.79436C19.4809 6.60633 19.7864 6.3758 20.0777 6.08307C20.9545 5.20295 21.2947 3.92577 21.4798 2.87083C21.6648 1.81588 21.6634 0.942721 21.6634 0.942721V0.292397H21.015C21.015 0.292397 20.1467 0.292052 19.0962 0.477841C18.0457 0.66363 16.7726 1.00534 15.8957 1.88518C15.6161 2.16619 15.3934 2.4596 15.2093 2.75524C15.1924 1.63011 15.0523 0.852539 15.0523 0.852539L14.9497 0.263184ZM20.2969 1.66417C20.2797 1.97679 20.2963 2.10613 20.2019 2.64474C20.0379 3.57962 19.6801 4.64215 19.1608 5.16347V5.16474H19.1595C18.4206 5.90724 17.6461 6.12091 17.0077 6.14404C16.6886 6.1556 16.4065 6.11335 16.206 6.06021C16.1198 6.03733 16.0525 6.00058 16.0021 5.97383C15.9758 5.9241 15.9393 5.85828 15.916 5.77315C15.8616 5.57393 15.8186 5.29211 15.8286 4.97422C15.8487 4.33842 16.0599 3.56245 16.814 2.80478C17.3338 2.28318 18.3911 1.92401 19.3216 1.75944C19.8575 1.66466 19.9857 1.68142 20.2969 1.66417ZM13.8313 1.88391C13.9266 2.78976 14.0537 4.63427 13.3285 6.52635C12.997 7.37043 12.6539 7.63914 12.4357 7.73682C12.2174 7.8345 12.0408 7.78663 11.9734 7.76222C12.0058 7.77375 11.8247 7.68745 11.6492 7.54249C11.4723 7.39648 11.2668 7.18608 11.0944 6.92138C10.7498 6.39197 10.5096 5.67534 10.8196 4.60206V4.60079C11.0615 3.76128 11.6536 3.03397 12.3647 2.50502C12.8598 2.13676 13.3506 2.02734 13.8313 1.88391ZM8.44236 5.87095C9.09051 7.02331 9.52506 8.73874 9.24533 10.3C9.09567 11.1354 8.69681 11.7696 8.30178 12.1722C8.10427 12.3736 7.90622 12.5145 7.76605 12.5876C7.70615 12.6188 7.66471 12.6236 7.63813 12.6282C7.57564 12.5988 7.46741 12.5464 7.33037 12.4479C7.1276 12.302 6.8892 12.0859 6.68066 11.8039C6.26357 11.2398 5.94193 10.438 6.17785 9.22164L6.17912 9.21529L6.18039 9.21021C6.45203 7.65133 7.37473 6.73385 8.44236 5.87095ZM14.7483 6.37648C14.8084 6.56316 14.8817 6.73293 15.0649 6.91756V6.91884C15.2307 7.08509 15.3809 7.16 15.5399 7.21605C15.3508 7.27086 15.162 7.33189 14.975 7.40023L14.9649 7.40404L14.9547 7.40785C14.6172 7.54407 14.3427 7.69912 14.0948 7.8613C14.2531 7.61382 14.4039 7.33912 14.5355 7.00394L14.5368 7.0014V6.99886C14.616 6.79256 14.6855 6.58501 14.7483 6.37648ZM19.0709 8.10644C19.6716 8.11768 19.7752 8.15304 20.1005 8.19154C19.9407 8.67991 19.7846 9.19786 19.3862 9.71065C18.8446 10.4078 18.1218 10.9819 17.3206 11.1967C16.2486 11.4851 15.5363 11.2354 15.0168 10.8868C14.757 10.7125 14.5522 10.5058 14.4114 10.3292C14.2713 10.1535 14.1918 9.97094 14.205 10.0117C14.1738 9.9156 14.1314 9.74348 14.229 9.52267C14.3262 9.30297 14.595 8.95888 15.4297 8.61958C16.644 8.17839 18.0087 8.08655 19.0709 8.10644ZM10.6094 8.34269C10.6814 8.41136 10.7552 8.48984 10.8247 8.54718C11.0907 8.76683 11.293 8.89788 11.5326 8.98539L11.5339 8.98666C11.8296 9.09362 12.37 9.19011 12.9638 8.92442C13.0286 8.89541 13.0911 8.84601 13.155 8.80884C13.1194 8.87136 13.0716 8.93227 13.0436 8.99555C12.7802 9.59122 12.8813 10.1384 12.9714 10.4156V10.4169C13.0543 10.669 13.1848 10.8729 13.3995 11.1421C13.4599 11.2179 13.5414 11.2985 13.6148 11.3771C13.476 11.3663 13.3379 11.3532 13.1968 11.3492C12.6401 11.3333 12.0664 11.3718 11.4845 11.4686C10.9456 11.5465 10.4695 11.7076 10.0534 11.9144C10.2598 11.5081 10.4289 11.0492 10.522 10.5299C10.651 9.80956 10.6701 9.06807 10.6094 8.34269ZM3.77276 10.6252C4.33472 11.5174 4.87726 12.6391 4.79356 14.207C4.68094 15.521 4.25366 16.2843 3.85382 16.7181C3.65317 16.9358 3.45548 17.071 3.31049 17.1436C3.24005 17.1789 3.1733 17.1898 3.13951 17.1957C3.10365 17.1794 2.9881 17.1391 2.83681 17.0408C2.63399 16.9089 2.39211 16.7043 2.17823 16.4324C1.75046 15.8885 1.41201 15.1 1.61844 13.8869V13.8857C1.89222 12.2684 2.7173 11.3598 3.77276 10.6252ZM12.9309 12.6612C14.1331 12.6857 15.2073 13.0378 16.0857 13.5351C15.2048 14.6294 14.3255 15.525 12.7941 15.7808H12.789L12.7852 15.782C11.4485 16.0242 10.6505 15.7013 10.1217 15.3019C9.63143 14.9315 9.39827 14.429 9.36058 14.3404C9.36485 14.314 9.37073 14.2705 9.40111 14.2083C9.47117 14.0649 9.6074 13.8642 9.80386 13.6659C10.1968 13.2694 10.8188 12.8764 11.6732 12.754H11.6808L11.6884 12.7527C12.1151 12.6813 12.5301 12.6531 12.9309 12.6612ZM6.03854 13.0359C6.2195 13.2191 6.40131 13.3802 6.57427 13.5046C6.87713 13.7225 7.10871 13.8548 7.3937 13.9238H7.39496C7.69626 13.9961 7.92397 13.9436 8.1384 13.8514C8.04671 14.0743 7.9963 14.3062 8.07508 14.6135L8.07634 14.6147C8.1715 14.9808 8.4099 15.457 8.87931 15.9319C8.50631 15.8895 8.12002 15.8649 7.70652 15.8875H7.69766L7.68753 15.8887C6.83946 15.9598 6.14104 16.155 5.56993 16.4146C5.82556 15.8452 6.01721 15.1494 6.08793 14.3048L6.0892 14.2947V14.2858C6.1134 13.844 6.08665 13.4323 6.03854 13.0359ZM8.34991 17.1843C9.6201 17.2415 10.5659 17.7228 11.3439 18.2169C10.6107 19.2726 9.70266 20.1067 8.09281 20.3787C6.88291 20.5841 6.09448 20.2447 5.5522 19.8161C5.28106 19.6017 5.07829 19.3587 4.94681 19.1556C4.84983 19.0057 4.81048 18.8916 4.79356 18.8533C4.7997 18.8185 4.81029 18.752 4.84549 18.6818C4.91902 18.5352 5.0559 18.3356 5.27484 18.1331C5.71113 17.7295 6.47545 17.2991 7.78505 17.1868C7.9802 17.1765 8.16845 17.1761 8.34991 17.1843ZM3.15344 17.2033C3.15236 17.2058 3.13583 17.207 3.19017 17.2148L3.18004 17.2135L3.1699 17.2122C3.18106 17.2135 3.15256 17.2043 3.15344 17.2033ZM4.7733 18.8025C4.78009 18.8504 4.78118 18.8306 4.78343 18.8355C4.78291 18.8375 4.7748 18.8123 4.77583 18.8215L4.77457 18.8114L4.7733 18.8025Z" fill="white"/>
</svg>
