<svg width="18" height="20" viewBox="0 0 18 20" fill="none" xmlns="http://www.w3.org/2000/svg">
<path d="M8.25879 0.491394C8.13736 0.491062 8.01767 0.520215 7.90999 0.576349C7.80232 0.632483 7.70988 0.713919 7.64062 0.81366C7.64062 0.81366 6.77755 2.04255 6.16992 3.68182C3.7978 4.64865 2.26011 6.49624 1.33008 8.26093C0.356978 10.1073 0 11.7814 0 12.6877C0 15.1138 1.85156 16.3234 1.85156 16.3234L1.80762 16.2941L5.93262 19.2941C6.02247 19.3588 6.12551 19.4028 6.23437 19.423C6.29569 19.4589 6.3549 19.5155 6.41602 19.5461C7.3449 20.0105 8.25 20.0002 8.25 20.0002H14.25C14.25 20.0002 14.8079 20.0083 15.3691 19.6926C15.9304 19.3769 16.5 18.6287 16.5 17.5627V8.75018C16.5 8.14874 16.2697 7.66827 15.9727 7.30878C15.9458 7.17516 15.8831 7.05138 15.7912 6.95073C15.6994 6.85007 15.5818 6.77635 15.4512 6.73749L15.1025 6.60565C16.0324 4.23662 17.8535 1.69257 17.8535 1.69257C17.9366 1.58229 17.9876 1.45123 18.0009 1.31382C18.0143 1.17641 17.9895 1.03798 17.9292 0.913775C17.8689 0.789574 17.7755 0.68442 17.6593 0.609894C17.5431 0.535369 17.4085 0.494363 17.2705 0.491394C17.1486 0.489451 17.0281 0.517249 16.9193 0.572382C16.8106 0.627514 16.717 0.708319 16.6465 0.807801C16.6465 0.807801 14.731 3.40259 13.6904 6.07245L11.2705 5.15839C12.0993 3.35769 13.3418 1.71307 13.3418 1.71307C13.4334 1.60027 13.4902 1.4633 13.5054 1.3188C13.5206 1.17431 13.4935 1.0285 13.4274 0.899112C13.3614 0.769719 13.2591 0.662308 13.1331 0.589928C13.0071 0.517549 12.8628 0.483318 12.7178 0.491394C12.6086 0.496949 12.5019 0.526311 12.4052 0.577425C12.3086 0.628538 12.2243 0.700167 12.1582 0.787293C12.1582 0.787293 10.7948 2.55785 9.86426 4.62811L7.72852 3.81952C8.23742 2.59758 8.85937 1.68671 8.85937 1.68671C8.94161 1.57522 8.99136 1.44314 9.00311 1.30511C9.01487 1.16708 8.98817 1.02849 8.92597 0.904706C8.86378 0.780922 8.76852 0.67678 8.65075 0.603826C8.53299 0.530872 8.39732 0.491957 8.25879 0.491394ZM6.76758 5.05585L11.5635 6.86932C9.13451 7.57124 7.44648 9.18069 6.375 10.8537C5.66032 11.9696 5.19914 13.1133 4.91016 14.0734C4.62117 15.0336 4.5 15.7613 4.5 16.2502C4.5 16.3036 4.50991 16.3503 4.51172 16.4025L2.69238 15.0812C2.67808 15.071 2.66343 15.0612 2.64844 15.0519C2.64844 15.0519 1.5 14.3865 1.5 12.6877C1.5 12.2814 1.79927 10.5805 2.6543 8.95819C3.47611 7.39885 4.78258 5.85282 6.76758 5.05585ZM14.25 8.00018C14.25 8.00018 14.4699 8.01052 14.666 8.10858C14.8621 8.20664 15 8.25018 15 8.75018V17.5627C15 18.1842 14.8196 18.2797 14.6309 18.3859C14.4421 18.4921 14.25 18.5002 14.25 18.5002H8.25C8.25 18.5002 7.6551 18.4898 7.08398 18.2043C6.51287 17.9187 6 17.5002 6 16.2502C6 16.0828 6.08977 15.3574 6.3457 14.507C6.60164 13.6566 7.01937 12.6323 7.64062 11.6623C8.88313 9.72223 10.8566 8.00018 14.25 8.00018ZM12.7383 12.4885C12.6398 12.49 12.5426 12.5109 12.4522 12.55C12.3618 12.5891 12.2799 12.6457 12.2114 12.7164C12.1428 12.7871 12.0889 12.8707 12.0526 12.9623C12.0163 13.0539 11.9985 13.1517 12 13.2502V14.7502C12 15.1724 11.6722 15.5002 11.25 15.5002H9.75C9.65062 15.4988 9.55194 15.5171 9.45972 15.5542C9.36749 15.5913 9.28355 15.6463 9.21277 15.7161C9.14199 15.7858 9.08579 15.869 9.04743 15.9607C9.00907 16.0524 8.98932 16.1508 8.98932 16.2502C8.98932 16.3496 9.00907 16.448 9.04743 16.5397C9.08579 16.6314 9.14199 16.7145 9.21277 16.7843C9.28355 16.8541 9.36749 16.9091 9.45972 16.9462C9.55194 16.9832 9.65062 17.0016 9.75 17.0002H11.25C12.4838 17.0002 13.5 15.984 13.5 14.7502V13.2502C13.5016 13.1497 13.4829 13.05 13.4452 12.9568C13.4075 12.8637 13.3514 12.7791 13.2804 12.7081C13.2094 12.637 13.1248 12.581 13.0316 12.5432C12.9385 12.5055 12.8387 12.4869 12.7383 12.4885Z" fill="white"/>
</svg>
