<svg width="12" height="21" viewBox="0 0 12 21" >
<path d="M3.75 0C2.51367 0 1.5 1.01367 1.5 2.25C1.5 3.13477 2.09766 3.75586 2.84766 4.125L0.603516 7.48828L0.591796 7.51172C0.205078 8.17383 0 8.92969 0 9.70312V18.75C0 19.9863 1.01367 21 2.25 21H9.75C10.9863 21 12 19.9863 12 18.75V9.70312C12 8.92969 11.7949 8.17383 11.4082 7.51172L11.3965 7.48828L9.14648 4.125C9.90234 3.75586 10.5 3.13477 10.5 2.25C10.5 1.01367 9.48633 0 8.25 0H3.75ZM3.75 1.5H8.25C8.67188 1.5 9 1.82812 9 2.25C9 2.67188 8.67188 3 8.25 3H3.75C3.32812 3 3 2.67188 3 2.25C3 1.82812 3.32812 1.5 3.75 1.5ZM4.40039 4.5H7.59961L10.1133 8.27344C10.3652 8.70117 10.5 9.19922 10.5 9.70312V18.75C10.5 19.1719 10.1719 19.5 9.75 19.5H2.25C1.82812 19.5 1.5 19.1719 1.5 18.75V9.70312C1.5 9.19922 1.63477 8.70703 1.88672 8.27344V8.26758L4.40039 4.5Z" fill="#ffffff"/>
</svg>
