<svg width="15" height="15" viewBox="0 0 15 15" fill="none" xmlns="http://www.w3.org/2000/svg">
<path d="M7.5 0.375C3.57159 0.375 0.375 3.57159 0.375 7.5C0.375 8.4821 0.570548 9.21364 1.14734 9.60596C1.72413 9.99828 2.3863 9.88858 3.02832 9.72424C3.76149 9.53658 4.58798 9.23555 5.4613 9.00293C5.26065 11.0898 5.125 12.3429 5.125 12.8438C5.125 13.496 5.47689 14.0687 5.95764 14.3281C6.4384 14.5875 6.96726 14.625 7.5 14.625C8.03274 14.625 8.5616 14.5875 9.04236 14.3281C9.52311 14.0687 9.875 13.496 9.875 12.8438C9.875 12.3429 9.73935 11.0898 9.5387 9.00293C10.412 9.23555 11.2385 9.53658 11.9717 9.72424C12.6137 9.88858 13.2759 9.99828 13.8527 9.60596C14.4295 9.21364 14.625 8.4821 14.625 7.5C14.625 3.57159 11.4284 0.375 7.5 0.375ZM7.5 1.5625C10.7868 1.5625 13.4375 4.21316 13.4375 7.5C13.4375 8.32171 13.2688 8.56766 13.1847 8.62488C13.1006 8.6821 12.8061 8.71204 12.2662 8.57385C11.1865 8.29749 9.46916 7.5 7.5 7.5C5.53084 7.5 3.81345 8.29749 2.73376 8.57385C2.19392 8.71203 1.89944 8.6821 1.81531 8.62488C1.73118 8.56766 1.5625 8.32171 1.5625 7.5C1.5625 4.21316 4.21316 1.5625 7.5 1.5625ZM7.5 8.6875C7.77754 8.6875 8.04716 8.73101 8.31873 8.76636C8.5302 11.0117 8.6875 12.5824 8.6875 12.8438C8.6875 13.1747 8.6405 13.1959 8.47644 13.2844C8.31238 13.3729 7.95051 13.4375 7.5 13.4375C7.04949 13.4375 6.68762 13.3729 6.52356 13.2844C6.3595 13.1959 6.3125 13.1747 6.3125 12.8438C6.3125 12.5824 6.4698 11.0117 6.68127 8.76636C6.95284 8.73101 7.22246 8.6875 7.5 8.6875Z" fill="#ffffff"/>
</svg>
