<svg width="20" height="20" viewBox="0 0 20 20" fill="none" xmlns="http://www.w3.org/2000/svg">
<path d="M10.5341 0.532461C10.0067 0.585345 9.53591 0.76679 9.14544 1.05102C8.36449 1.61947 7.90431 2.45745 7.46673 3.30687C6.59156 5.00572 5.85523 6.72772 4.24407 7.26781C2.58068 7.82451 1.56218 8.87384 1.039 9.95434C0.515815 11.0348 0.453795 12.1137 0.523371 12.8694C0.595246 13.658 0.994172 15.1951 2.41302 16.2737C3.28278 16.9338 4.49625 17.1001 5.82318 16.9797C6.56395 17.786 7.4359 18.4795 8.44232 18.9016C11.6177 20.232 14.3797 20.2602 16.4286 19.4963C18.4776 18.7325 19.8285 17.1462 19.9794 15.3596C20.0678 14.3185 19.8885 13.4809 19.4228 12.8752C18.9571 12.2696 18.293 11.9778 17.6445 11.7854C16.5435 11.4588 15.3817 11.3156 14.3808 10.8362C15.2924 8.91366 15.615 7.09019 15.4618 5.51586C15.2383 3.21723 14.0116 1.41239 12.2568 0.775625C11.6456 0.553544 11.0615 0.479577 10.5341 0.532461ZM10.6982 1.98852C10.9629 1.96462 11.2902 2.01989 11.7441 2.1848C12.8498 2.58604 13.7903 3.80567 13.9706 5.65941C14.1509 7.51316 13.5483 9.97486 11.5419 12.635C10.5774 13.9137 8.83099 14.8382 7.13568 15.2483C5.44036 15.6584 3.81328 15.4518 3.32122 15.0784C3.13398 14.9357 2.98767 14.7645 2.84661 14.592C4.20355 14.2996 6.03954 13.6921 7.81829 12.5412C9.92731 11.1767 11.909 9.02916 12.4882 5.885C12.5099 5.77424 12.5062 5.66002 12.4776 5.55085C12.449 5.44168 12.3961 5.34037 12.3229 5.25448C12.2497 5.1686 12.158 5.10034 12.0548 5.05479C11.9515 5.00925 11.8393 4.9876 11.7265 4.99145C11.5537 4.99712 11.3881 5.06234 11.2579 5.17605C11.1276 5.28977 11.0406 5.445 11.0117 5.61547C10.5198 8.28531 8.87657 10.0698 7.00384 11.2815C5.2373 12.4245 3.29465 13.0026 2.11712 13.2121C2.05983 13.0126 2.02717 12.8406 2.01751 12.7346V12.7317C1.96859 12.2003 2.02176 11.3673 2.38958 10.6077C2.7574 9.84802 3.4045 9.13244 4.72161 8.69164C7.07946 7.90124 7.97316 5.59988 8.79974 3.99535C9.21303 3.19309 9.61938 2.56081 10.0273 2.26391C10.2312 2.11545 10.4334 2.01241 10.6982 1.98852ZM13.6689 12.1516C14.9861 12.8162 16.3333 12.9618 17.2167 13.2239C17.7311 13.3765 18.0487 13.5492 18.2333 13.7893C18.418 14.0294 18.5544 14.4185 18.4853 15.2336C18.3917 16.3421 17.5298 17.4852 15.9072 18.0901C14.2845 18.695 11.919 18.7324 9.02239 17.5188C8.54577 17.3189 8.08587 17.0174 7.6513 16.6575C8.60459 16.4126 9.56527 16.0418 10.4462 15.5237C11.7624 16.4154 13.165 17.0002 14.7499 17.0002C14.8493 17.0016 14.948 16.9833 15.0402 16.9462C15.1324 16.9092 15.2164 16.8541 15.2872 16.7844C15.3579 16.7146 15.4141 16.6314 15.4525 16.5397C15.4909 16.448 15.5106 16.3496 15.5106 16.2502C15.5106 16.1508 15.4909 16.0524 15.4525 15.9607C15.4141 15.8691 15.3579 15.7859 15.2872 15.7161C15.2164 15.6463 15.1324 15.5913 15.0402 15.5542C14.948 15.5172 14.8493 15.4988 14.7499 15.5002C13.6867 15.5002 12.7352 15.1742 11.7558 14.5862C12.1165 14.2692 12.45 13.922 12.7402 13.5373C13.0907 13.0727 13.39 12.6105 13.6689 12.1516Z" fill="white"/>
</svg>
