<svg width="14" height="16" viewBox="0 0 14 16" fill="none" xmlns="http://www.w3.org/2000/svg">
<path d="M5.71878 0.1875C5.56131 0.187516 5.4103 0.250076 5.29895 0.361423C5.18761 0.472769 5.12504 0.623783 5.12503 0.78125V2.5625H4.53128C4.4526 2.56139 4.37448 2.57592 4.30147 2.60526C4.22846 2.6346 4.16201 2.67816 4.10597 2.7334C4.04994 2.78865 4.00545 2.85448 3.97508 2.92707C3.94471 2.99966 3.92907 3.07756 3.92907 3.15625C3.92907 3.23494 3.94471 3.31284 3.97508 3.38543C4.00545 3.45802 4.04994 3.52385 4.10597 3.5791C4.16201 3.63434 4.22846 3.6779 4.30147 3.70724C4.37448 3.73658 4.4526 3.75111 4.53128 3.75H5.12503V5.12769C5.12503 5.69432 4.76236 6.20195 4.24832 6.33142C2.10778 6.87064 0.503137 8.36171 0.395903 10.1003C0.361485 10.2061 0.357467 10.3194 0.384306 10.4274C0.438069 11.618 1.13378 12.8246 2.08206 13.8066C3.06919 14.8289 4.35818 15.625 5.71878 15.625H8.09378C9.45438 15.625 10.7434 14.8289 11.7305 13.8066C12.6806 12.8227 13.3769 11.6133 13.4283 10.4204C13.4542 10.3139 13.4502 10.2024 13.4167 10.098C13.3623 9.22792 12.9377 8.42168 12.25 7.76477V7.75781V5.53125C12.25 3.89846 10.9141 2.5625 9.28128 2.5625H8.68753V0.78125C8.68751 0.623783 8.62495 0.472769 8.51361 0.361423C8.40226 0.250076 8.25125 0.187516 8.09378 0.1875H5.71878ZM6.31253 1.375H7.50003V2.5625H6.31253V1.375ZM6.31253 3.75H7.50003V5.12769C7.50003 6.20374 8.1942 7.21209 9.27432 7.48413C10.7667 7.86007 11.7909 8.79203 12.1225 9.6875H1.69009C2.02169 8.79203 3.04585 7.86007 4.53824 7.48413C5.61782 7.21222 6.31253 6.20455 6.31253 5.12769V3.75ZM8.68753 3.75H9.28128C10.2729 3.75 11.0625 4.53967 11.0625 5.53125V6.90894C10.6059 6.66439 10.1026 6.46703 9.56424 6.33142C9.05074 6.20209 8.68753 5.69276 8.68753 5.12769V3.75ZM1.65762 10.875H12.1549C11.9663 11.5383 11.5052 12.3304 10.877 12.981C10.0458 13.8418 8.95974 14.4375 8.09378 14.4375H5.71878C4.85281 14.4375 3.7668 13.8418 2.93558 12.981C2.30739 12.3304 1.84628 11.5383 1.65762 10.875Z" fill="#ffffff"/>
</svg>
