<svg width="24" height="17" viewBox="0 0 24 17" fill="none" xmlns="http://www.w3.org/2000/svg">
<path d="M12 0C11.434 0 10.8509 0.366492 10.6582 0.802734C10.5226 1.10972 10.5047 1.36497 10.5029 1.59375C7.52118 1.95265 5.28001 3.39203 3.83789 5.60742C2.27413 8.00968 1.61867 11.2591 1.53516 15H0V16.5H24V15H22.4648C22.3813 11.2591 21.7259 8.00968 20.1621 5.60742C18.72 3.39203 16.4788 1.95265 13.4971 1.59375C13.4953 1.36497 13.4774 1.10972 13.3418 0.802734C13.1491 0.366492 12.566 0 12 0ZM12 3C15.3502 3 17.4777 4.23173 18.9053 6.4248C20.2334 8.46507 20.8779 11.4447 20.9648 15H3.03516C3.12207 11.4447 3.7666 8.46507 5.09473 6.4248C6.52232 4.23173 8.6498 3 12 3Z" fill="white"/>
</svg>
