<svg width="20" height="21" viewBox="0 0 20 21" fill="none" xmlns="http://www.w3.org/2000/svg">
<path d="M11.7383 0.988373C11.6398 0.98991 11.5426 1.01083 11.4522 1.04994C11.3618 1.08906 11.2799 1.14559 11.2114 1.21632C11.1428 1.28706 11.0889 1.3706 11.0526 1.46218C11.0163 1.55377 10.9985 1.6516 11 1.75009V2.49423H8.9375C7.59605 2.49423 6.49414 3.5978 6.49414 4.93759V5.50009H0.5V7.00009H6.49414V7.56259C6.49414 8.90404 7.5977 10.006 8.9375 10.006H11V10.7501C11 12.0418 11.501 12.8536 11.876 13.4161C12.251 13.9786 12.5 14.2918 12.5 15.2501C12.5 16.2084 12.251 16.5216 11.876 17.0841C11.501 17.6466 11 18.4584 11 19.7501C10.9986 19.8495 11.017 19.9481 11.054 20.0404C11.0911 20.1326 11.1461 20.2165 11.2159 20.2873C11.2857 20.3581 11.3688 20.4143 11.4605 20.4527C11.5522 20.491 11.6506 20.5108 11.75 20.5108C11.8494 20.5108 11.9478 20.491 12.0395 20.4527C12.1312 20.4143 12.2143 20.3581 12.2841 20.2873C12.3539 20.2165 12.4089 20.1326 12.446 20.0404C12.483 19.9481 12.5014 19.8495 12.5 19.7501C12.5 18.7918 12.749 18.4786 13.124 17.9161C13.499 17.3536 14 16.5418 14 15.2501C14 13.9584 13.499 13.1466 13.124 12.5841C12.749 12.0216 12.5 11.7084 12.5 10.7501V1.75009C12.5016 1.64963 12.4829 1.54987 12.4452 1.45675C12.4075 1.36362 12.3514 1.27902 12.2804 1.20797C12.2094 1.13693 12.1248 1.08088 12.0316 1.04315C11.9385 1.00543 11.8387 0.986801 11.7383 0.988373ZM14.7383 0.988373C14.6398 0.98991 14.5426 1.01083 14.4522 1.04994C14.3618 1.08906 14.2799 1.14559 14.2114 1.21632C14.1428 1.28706 14.0889 1.3706 14.0526 1.46218C14.0163 1.55377 13.9985 1.6516 14 1.75009V10.7501C13.9986 10.8495 14.017 10.9481 14.054 11.0404C14.0911 11.1326 14.1461 11.2165 14.2159 11.2873C14.2857 11.3581 14.3688 11.4143 14.4605 11.4527C14.5522 11.491 14.6506 11.5108 14.75 11.5108C14.8494 11.5108 14.9478 11.491 15.0395 11.4527C15.1312 11.4143 15.2143 11.3581 15.2841 11.2873C15.3539 11.2165 15.4089 11.1326 15.446 11.0404C15.483 10.9481 15.5014 10.8495 15.5 10.7501V1.75009C15.5016 1.64963 15.4829 1.54987 15.4452 1.45675C15.4075 1.36362 15.3514 1.27902 15.2804 1.20797C15.2094 1.13693 15.1248 1.08088 15.0316 1.04315C14.9385 1.00543 14.8387 0.986801 14.7383 0.988373ZM17.7383 0.988373C17.6398 0.98991 17.5426 1.01083 17.4522 1.04994C17.3618 1.08906 17.2799 1.14559 17.2114 1.21632C17.1428 1.28706 17.0889 1.3706 17.0526 1.46218C17.0163 1.55377 16.9985 1.6516 17 1.75009V10.7501C16.9986 10.8495 17.017 10.9481 17.054 11.0404C17.0911 11.1326 17.1461 11.2165 17.2159 11.2873C17.2857 11.3581 17.3688 11.4143 17.4605 11.4527C17.5522 11.491 17.6506 11.5108 17.75 11.5108C17.8494 11.5108 17.9478 11.491 18.0395 11.4527C18.1312 11.4143 18.2143 11.3581 18.2841 11.2873C18.3539 11.2165 18.4089 11.1326 18.446 11.0404C18.483 10.9481 18.5014 10.8495 18.5 10.7501V10.0118L20.0059 10.0001L19.9941 8.50009L18.5 8.51181V7.00009H20V5.50009H18.5V3.99423H19.959V2.49423H18.5V1.75009C18.5016 1.64963 18.4829 1.54987 18.4452 1.45675C18.4075 1.36362 18.3514 1.27902 18.2804 1.20797C18.2094 1.13693 18.1248 1.08088 18.0316 1.04315C17.9385 1.00543 17.8387 0.986801 17.7383 0.988373ZM8.9375 3.99423H11V5.50009H7.99414V4.93759C7.99414 4.40839 8.40695 3.99423 8.9375 3.99423ZM7.99414 7.00009H11V8.50595H8.9375C8.4083 8.50595 7.99414 8.09314 7.99414 7.56259V7.00009Z" fill="#ffffff"/>
</svg>
