<svg width="15" height="15" viewBox="0 0 15 15" fill="none" xmlns="http://www.w3.org/2000/svg">
<path d="M7.92444 0.375059C5.79271 0.375059 4.36794 1.13771 3.51306 1.91974C2.65818 2.70176 2.33716 3.53863 2.33716 3.53863C2.32473 3.57251 2.31541 3.60744 2.30933 3.643C2.17772 3.77392 0.365723 5.61558 0.365723 8.09381C0.365723 10.2453 1.41718 11.925 2.85901 13.0085C4.30084 14.092 6.11982 14.6251 7.79688 14.6251C10.2797 14.6251 11.7641 13.6305 12.5422 12.6096C13.3204 11.5886 13.4352 10.5314 13.4352 10.5314C13.444 10.4486 13.4352 10.3648 13.4095 10.2855C13.3837 10.2062 13.3416 10.1333 13.2858 10.0714C13.23 10.0095 13.1618 9.95999 13.0857 9.92616C13.0095 9.89234 12.9271 9.87493 12.8438 9.87506H11.6562C11.5116 9.87507 11.372 9.92785 11.2635 10.0235C11.1551 10.1192 11.0852 10.2511 11.0671 10.3946C11.0671 10.3946 10.9651 11.1722 10.4989 11.9439C10.0327 12.7156 9.29738 13.4376 7.79688 13.4376C6.82903 13.4376 6.22965 12.8398 5.79065 12.0204C5.35165 11.2011 5.17371 10.1666 5.17371 9.81012C5.17371 9.44574 5.25613 9.0216 5.3894 8.59711C5.68544 8.98147 6.06023 9.40628 6.56067 9.76373C6.62381 9.81248 6.69613 9.848 6.77331 9.86819C6.85048 9.88837 6.93093 9.89279 7.00986 9.8812C7.08878 9.8696 7.16456 9.84223 7.23267 9.8007C7.30078 9.75917 7.35982 9.70435 7.40627 9.6395C7.45273 9.57465 7.48564 9.50111 7.50305 9.42326C7.52045 9.34541 7.52199 9.26485 7.50758 9.18639C7.49316 9.10794 7.46309 9.03319 7.41915 8.96661C7.37521 8.90003 7.3183 8.84299 7.25183 8.79889C6.54958 8.29728 6.13994 7.64057 5.9646 7.34003C6.23892 6.9084 6.55443 6.59028 6.77173 6.43085C7.12845 7.03866 7.87869 8.12038 9.04004 8.63653C9.18398 8.70051 9.34744 8.70468 9.49445 8.64814C9.64147 8.59159 9.76 8.47896 9.82397 8.33502C9.88795 8.19108 9.89212 8.02762 9.83558 7.88061C9.77903 7.73359 9.6664 7.61506 9.52246 7.55108C8.9552 7.29897 8.46717 6.73652 8.10303 6.23602C8.86563 6.13839 9.45808 5.94805 9.91443 5.6701C10.5864 5.26082 10.9415 4.69294 11.2086 4.23675C11.4757 3.78057 11.6664 3.44315 12.0134 3.19769C12.3605 2.95223 12.9184 2.75006 14.0266 2.75006C14.1053 2.75117 14.1834 2.73664 14.2564 2.7073C14.3294 2.67796 14.3959 2.6344 14.4519 2.57915C14.5079 2.52391 14.5524 2.45808 14.5828 2.38549C14.6132 2.3129 14.6288 2.235 14.6288 2.15631C14.6288 2.07762 14.6132 1.99972 14.5828 1.92713C14.5524 1.85454 14.5079 1.78871 14.4519 1.73346C14.3959 1.67822 14.3294 1.63466 14.2564 1.60532C14.1834 1.57598 14.1053 1.56145 14.0266 1.56256C12.7693 1.56256 11.9243 1.8057 11.3269 2.22821C10.7295 2.65072 10.4378 3.20393 10.1835 3.63837C9.92911 4.0728 9.72221 4.39555 9.29749 4.65423C8.8922 4.90108 8.22327 5.0999 7.06165 5.1181C7.06082 5.11811 7.06016 5.11809 7.05933 5.1181C7.0392 5.11785 7.01907 5.11863 6.99902 5.12042C6.99649 5.12044 6.9946 5.1204 6.99207 5.12042C6.9607 5.12069 6.93834 5.12506 6.90625 5.12506C6.87829 5.12541 6.85039 5.12774 6.82275 5.13202C6.80433 5.13465 6.78758 5.14046 6.76941 5.14361C6.71715 5.13019 6.66331 5.12395 6.60938 5.12506C4.5829 5.12506 3.84633 4.07139 3.62671 3.7149C3.70183 3.55015 3.78703 3.27781 4.31323 2.79645C4.97717 2.18909 6.06854 1.56256 7.92444 1.56256H9.28125H12.8229C12.9016 1.56367 12.9797 1.54914 13.0527 1.5198C13.1257 1.49046 13.1921 1.4469 13.2482 1.39165C13.3042 1.33641 13.3487 1.27058 13.3791 1.19799C13.4094 1.1254 13.4251 1.0475 13.4251 0.968809C13.4251 0.890123 13.4094 0.81222 13.3791 0.73963C13.3487 0.66704 13.3042 0.601209 13.2482 0.545964C13.1921 0.490719 13.1257 0.447161 13.0527 0.417822C12.9797 0.388482 12.9016 0.373947 12.8229 0.375059H7.92444ZM9.28125 1.56256C9.12378 1.56256 8.97275 1.62512 8.8614 1.73646C8.75006 1.84781 8.6875 1.99884 8.6875 2.15631C8.6875 2.31378 8.75006 2.4648 8.8614 2.57615C8.97275 2.6875 9.12378 2.75006 9.28125 2.75006C9.43872 2.75006 9.58975 2.6875 9.7011 2.57615C9.81244 2.4648 9.875 2.31378 9.875 2.15631C9.875 1.99884 9.81244 1.84781 9.7011 1.73646C9.58975 1.62512 9.43872 1.56256 9.28125 1.56256ZM2.92859 4.74933C3.40146 5.24828 4.19971 5.85779 5.33374 6.14325C5.15716 6.3749 4.99022 6.62196 4.8374 6.89007C4.8152 6.92903 4.79872 6.97335 4.7771 7.013C4.77415 7.01841 4.77076 7.02381 4.76782 7.02923C4.74744 7.06227 4.73035 7.09723 4.7168 7.1336C4.28881 7.95483 3.98621 8.90059 3.98621 9.81012C3.98621 10.4654 4.1885 11.5438 4.74463 12.5817C4.7688 12.6268 4.82079 12.6597 4.84668 12.7046C4.40887 12.5071 3.95069 12.3434 3.57336 12.0599C2.37063 11.1561 1.55322 9.86817 1.55322 8.09381C1.55322 6.65631 2.46281 5.33425 2.92859 4.74933Z" fill="#ffffff"/>
</svg>
