<svg width="18" height="19" viewBox="0 0 18 19" fill="none" xmlns="http://www.w3.org/2000/svg">
<path d="M17.2266 -0.0087568C17.0795 -0.00359805 16.9372 0.0447047 16.8174 0.130137C16.6976 0.21557 16.6055 0.334358 16.5527 0.471712C16.256 1.21344 15.5854 2.09603 15.0029 3.04398C13.5704 1.61516 11.4368 2.06213 10.5 1.50003C10.5 2.06253 9.9375 4.50003 12.9375 4.50003C11.8125 5.62503 12 7.50003 12 7.50003C12 7.50003 13.782 7.59453 15 6.37503C14.8965 7.17303 16.125 7.50003 18 7.50003C17.0625 6.37503 18.0008 4.68753 16.4678 3.56253L16.4619 3.5596C16.9634 2.78946 17.5703 1.97072 17.9473 1.02835C17.9955 0.912199 18.0137 0.785787 18.0003 0.660743C17.9869 0.535699 17.9422 0.416037 17.8705 0.312762C17.7987 0.209488 17.7021 0.125916 17.5896 0.0697325C17.4771 0.0135494 17.3522 -0.013441 17.2266 -0.0087568ZM9.73828 4.69925C9.57778 4.87625 9.41981 5.05381 9.25781 5.23831C8.57231 6.01831 7.8623 6.82555 7.1543 7.35355C6.1883 8.07955 5.13185 8.45975 4.11035 8.82425C2.08985 9.54725 0 10.2961 0 13.6846C0 16.0756 1.94494 18.0205 4.33594 18.0205C9.60844 18.0205 14.473 13.0837 16.0225 8.84769C15.493 8.75019 15.0523 8.60338 14.6953 8.40238C14.6593 8.41888 14.6258 8.42689 14.5898 8.44339C13.2083 12.0434 8.80744 16.5205 4.33594 16.5205C2.77144 16.522 1.5 15.2491 1.5 13.6846C1.5 11.3521 2.67176 10.9309 4.61426 10.2364C5.68826 9.85086 6.90771 9.41422 8.05371 8.55472C8.88621 7.93072 9.64631 7.06562 10.3828 6.22562C10.4593 6.13862 10.5363 6.05481 10.6143 5.96781C10.6428 5.81631 10.6659 5.66834 10.7109 5.50784C10.3869 5.33534 10.1 5.11559 9.85547 4.85159C9.81047 4.80209 9.77878 4.75025 9.73828 4.69925ZM6.71777 10.4942C6.59993 10.5016 6.48549 10.5367 6.38379 10.5967C5.52296 11.079 4.38666 11.2798 3.28125 12.1641C3.12585 12.2884 3.0262 12.4694 3.00422 12.6672C2.98225 12.865 3.03974 13.0634 3.16406 13.2188C3.28838 13.3742 3.46934 13.4738 3.66714 13.4958C3.86493 13.5178 4.06335 13.4603 4.21875 13.336C4.98834 12.7203 5.98504 12.5371 7.11621 11.9034C7.26048 11.8254 7.37523 11.7023 7.44288 11.5529C7.51054 11.4035 7.52738 11.2361 7.49082 11.0762C7.45426 10.9164 7.36632 10.7729 7.24046 10.6678C7.1146 10.5627 6.95776 10.5017 6.79395 10.4942C6.76857 10.4929 6.74315 10.4929 6.71777 10.4942Z" fill="white"/>
</svg>
