<svg width="353" height="13" viewBox="0 0 353 13" fill="none" xmlns="http://www.w3.org/2000/svg">
<path d="M115.295 1.47266L115.533 0.501595L115.416 0.472656H115.295V1.47266ZM140.12 7.5785L139.881 8.54956L139.999 8.5785H140.12V7.5785ZM341.667 7.5785C341.667 10.524 344.054 12.9118 347 12.9118C349.946 12.9118 352.333 10.524 352.333 7.5785C352.333 4.63298 349.946 2.24517 347 2.24517C344.054 2.24517 341.667 4.63298 341.667 7.5785ZM0 2.47266H115.295V0.472656H0V2.47266ZM115.056 2.44372L139.881 8.54956L140.359 6.60744L115.533 0.501595L115.056 2.44372ZM140.12 8.5785H347V6.5785H140.12V8.5785Z" fill="url(#paint0_linear_212_11062)"/>
<defs>
<linearGradient id="paint0_linear_212_11062" x1="0" y1="1.47266" x2="350.5" y2="1.47266" gradientUnits="userSpaceOnUse">
<stop stop-color="#1DBBF4"/>
<stop offset="1" stop-color="#1E73C9"/>
</linearGradient>
</defs>
</svg>
