<svg width="123" height="6" viewBox="0 0 123 6" fill="none" xmlns="http://www.w3.org/2000/svg">
<path d="M87.3839 0.6875L87.4898 0.198839L87.4374 0.1875H87.3839V0.6875ZM98.2717 3.04656L98.1658 3.53522L98.2182 3.54656H98.2717V3.04656ZM116.995 3.04656C116.995 4.51932 118.189 5.71322 119.661 5.71322C121.134 5.71322 122.328 4.51932 122.328 3.04656C122.328 1.5738 121.134 0.379891 119.661 0.379891C118.189 0.379891 116.995 1.5738 116.995 3.04656ZM0 1.1875H87.3839V0.1875H0V1.1875ZM87.278 1.17616L98.1658 3.53522L98.3776 2.5579L87.4898 0.198839L87.278 1.17616ZM98.2717 3.54656H119.661V2.54656H98.2717V3.54656Z" fill="url(#paint0_linear_498_69)"/>
<defs>
<linearGradient id="paint0_linear_498_69" x1="0" y1="0.6875" x2="119.661" y2="0.6875" gradientUnits="userSpaceOnUse">
<stop stop-color="#1DBBF4"/>
<stop offset="1" stop-color="#1E73C9"/>
</linearGradient>
</defs>
</svg>
