<?xml version="1.0" encoding="utf-8"?><svg viewBox="0 0 48 49" xmlns="http://www.w3.org/2000/svg" xmlns:xlink="http://www.w3.org/1999/xlink"><style>:root>svg{display:none}:root>svg:target{display:block}</style><svg viewBox="0 0 48 49" id="activity"><path d="M32.5 4.719c-2.786 0-5.08 2.258-5.08 5s2.294 5 5.08 5c2.788 0 5.08-2.26 5.08-5s-2.292-5-5.08-5zm0 3.333c.958 0 1.693.727 1.693 1.667 0 .94-.735 1.666-1.693 1.666-.953 0-1.693-.728-1.693-1.666s.74-1.667 1.693-1.667zm-13.534 3.333a1.715 1.715 0 00-.734.176l-7.62 3.75 1.508 2.982 6.84-3.366 3.995 2.09-6.9 14.694L7 34.81l1.111 3.15 9.737-3.332a1.699 1.699 0 00.98-.88l7.117-15.169 4.895 2.559v5.247c0 .442.178.866.496 1.179.317.312.748.488 1.197.488H41V24.72h-6.773v-4.584c0-.302-.084-.599-.243-.858a1.682 1.682 0 00-.657-.613L19.78 11.581a1.716 1.716 0 00-.814-.196zm6.793 16.667c-.449 0-.88.176-1.197.488a1.646 1.646 0 00-.31 1.934l3.2 6.302v7.943h3.388v-8.334c0-.257-.062-.511-.179-.742l-3.32-6.53a1.639 1.639 0 00-.067-.136 1.676 1.676 0 00-.623-.675 1.713 1.713 0 00-.892-.25z"/></svg><svg viewBox="0 0 7 8" id="arrow"><path d="M0 7.278V.722C0 .46.133.228.354.098a.692.692 0 01.709 0l5.583 3.278C6.868 3.506 7 3.74 7 4c0 .26-.132.494-.354.624L1.063 7.902a.692.692 0 01-.709 0A.715.715 0 010 7.278z"/></svg><svg viewBox="0 0 15 15" id="arrow-down"><path d="M13.5 14.5a1 1 0 001-1v-9a1 1 0 10-2 0v8h-8a1 1 0 100 2h9zM.793 2.207l12 12 1.414-1.414-12-12L.793 2.207z"/></svg><svg fill="none" viewBox="0 0 16 24" id="arrow-red" xmlns="http://www.w3.org/2000/svg"><path d="M7.293 23.707a1 1 0 001.414 0l6.364-6.364a1 1 0 00-1.414-1.414L8 21.586l-5.657-5.657A1 1 0 00.93 17.343l6.364 6.364zM7 0v23h2V0H7z" fill="#D26256"/></svg><svg viewBox="0 0 27 23" id="attention"><path d="M13.11 0c-.95 0-1.901.451-2.441 1.354L.38 18.546c-1.094 1.818.307 4.19 2.433 4.19h20.583c2.133 0 3.535-2.372 2.448-4.19L15.55 1.354C15.01.45 14.06 0 13.11 0zm0 1.723a1.1 1.1 0 01.943.533L24.34 19.44c.43.718-.048 1.545-.944 1.545H2.814c-.888 0-1.367-.827-.936-1.545L12.166 2.256a1.1 1.1 0 01.943-.533zm-.89 5.263v8.75h1.75v-8.75h-1.75zm0 10.5v1.75h1.75v-1.75h-1.75z"/></svg><svg viewBox="0 0 18 19" id="beans"><path d="M15.718 0A.75.75 0 0015 .75c0 .386-.062.441-.22.56-.158.118-.506.24-.97.345-.922.209-2.299.357-3.275 1.439-.734.741-1.25 1.66-1.447 2.637v.003c-.063.315-.033.595-.024.884-.528.25-1.062.502-1.517.955l-.003.003c-.468.47-.776 1.043-1.04 1.626-1.233.096-2.324.36-3.047.953-.838.686-1.323 1.596-1.655 2.49-.333.894-.528 1.79-.75 2.525-.223.734-.48 1.27-.762 1.515A.75.75 0 00.776 18s3.785.024 4.64.024c1.251 0 2.532-.536 3.54-1.544v-.003c.435-.437.67-.95.917-1.456.018 0 .025.003.044.003 1.25 0 2.53-.536 3.539-1.544v-.003a4.937 4.937 0 001.447-3.519c.541-.25 1.087-.514 1.553-.978.939-.94 1.471-2.117 1.538-3.287a.7.7 0 000-.041c0-1.975-.395-3.323-.823-4.19-.428-.867-.964-1.307-.964-1.307a.75.75 0 00-.49-.155zm.117 2.183c.312.644.647 1.717.653 3.436-.047.77-.402 1.605-1.093 2.297-.429.428-.915.718-1.423.9a.75.75 0 00-.493.796c.11.896-.236 1.958-1.084 2.807-.747.747-1.662 1.105-2.478 1.105-.067 0-.17-.014-.322-.033a.75.75 0 00-.797.495c-.18.51-.471 1-.903 1.433-.747.747-1.662 1.105-2.478 1.105-.612 0-2.3-.011-3.425-.018.139-.316.394-.566.495-.9.248-.817.438-1.68.72-2.44.284-.76.648-1.4 1.2-1.851.55-.452 1.314-.762 2.58-.762a.75.75 0 00.706-.495c.185-.51.5-1.009.914-1.424a3.848 3.848 0 011.442-.905.75.75 0 00.495-.797 2.843 2.843 0 01.014-.905v-.003c.135-.661.508-1.347 1.05-1.89a.84.84 0 00.029-.032c.522-.588 1.47-.748 2.504-.982.518-.116 1.057-.248 1.541-.612.09-.067.075-.24.153-.325zM14.1 4.5a1.683 1.683 0 00-.732.172 2.557 2.557 0 00-1.115 1.038c-.11.193-.185.392-.224.585a1.277 1.277 0 000 .54.848.848 0 00.223.413c.109.11.25.185.413.224.164.038.347.038.54 0 .194-.04.392-.116.586-.225.193-.11.377-.25.54-.415.165-.164.306-.348.415-.541.11-.193.186-.392.225-.585a1.277 1.277 0 000-.54.848.848 0 00-.223-.414.917.917 0 00-.648-.252zm-3 4.5a1.683 1.683 0 00-.732.172c-.25.116-.491.287-.7.496a2.553 2.553 0 00-.415.541 1.99 1.99 0 00-.224.586 1.279 1.279 0 000 .54.848.848 0 00.223.413c.109.11.25.186.413.224.164.038.347.038.54 0 .194-.04.392-.116.586-.225.193-.11.377-.25.54-.415.165-.164.306-.348.415-.541.11-.193.186-.392.225-.585a1.277 1.277 0 000-.54.848.848 0 00-.223-.414A.917.917 0 0011.1 9zm-4.5 3a1.683 1.683 0 00-.732.172c-.25.116-.491.287-.7.496a2.553 2.553 0 00-.415.541 1.99 1.99 0 00-.224.586 1.279 1.279 0 000 .54.848.848 0 00.223.413c.109.11.25.186.413.224.164.038.347.038.54 0 .193-.04.392-.116.586-.225.193-.11.377-.25.54-.415.165-.164.306-.348.415-.541.11-.193.186-.392.225-.585a1.279 1.279 0 000-.54.848.848 0 00-.223-.414A.917.917 0 006.6 12z"/></svg><svg viewBox="0 0 19 19" id="berries"><path d="M10.576.938c-.449.004-.602.037-.73.056a.75.75 0 00-.023-.003h-.008a.75.75 0 00-.068-.003H9.73a.75.75 0 00-.582.296C5.099 4.702 4.582 9.87 4.532 10.477c-.541-.31-1.138-.465-1.722-.419a2.752 2.752 0 00-.495.085c-1.266.34-2.254 1.59-2.306 3.285a.749.749 0 00-.009.134.75.75 0 00.018.17c.087 2.84 2.29 5.155 5.06 5.25A.744.744 0 005.25 19a.75.75 0 00.179-.018 5.138 5.138 0 003.586-1.646c.928.983 2.2 1.628 3.63 1.658.035.004.07.006.105.006a.75.75 0 00.179-.018c2.77-.098 4.975-2.42 5.057-5.261a.743.743 0 00.014-.159.748.748 0 00-.012-.15c-.056-1.687-1.04-2.93-2.302-3.269-.95-.255-2.006.02-2.816.756-.111-.141-.562-.737-1.113-2.094-.42-1.034-.828-2.463-1.06-4.237 1.22 1.224 3.284 2.408 6.471 2.429a.752.752 0 00.158 0 .75.75 0 00.232-.062.75.75 0 00.316-1.119c-1.22-2.814-3.285-4.095-5.015-4.579a8.303 8.303 0 00-2.283-.299zm.343 1.518a6.47 6.47 0 011.535.228c1.188.332 2.517 1.056 3.53 2.737-2.133-.25-3.442-1.102-4.268-1.946a5.673 5.673 0 01-.797-1.02zm-1.834.987c.181 2.533.717 4.527 1.283 5.924.111.273.221.492.332.724a2.853 2.853 0 00-1.7.43 2.808 2.808 0 00-.814-.378c-.705-.189-1.464-.072-2.142.293.103-.866.632-4.258 3.041-6.993zm1.737 8.098c.415.077.832.361 1.172.914a.75.75 0 00.739.589h.008a.793.793 0 00.039-.003.75.75 0 00.717-.557c.516-.845 1.212-1.052 1.802-.893.622.166 1.201.737 1.201 1.971 0 2.2-1.686 3.938-3.75 3.938-1.158 0-2.181-.552-2.874-1.424a5.516 5.516 0 00.624-2.514c0-.72-.177-1.359-.466-1.892.25-.113.514-.18.788-.13zm-7.637.003c.46.032.934.314 1.312.928l.003.006a.75.75 0 00.733.566h.008a.809.809 0 00.039-.003.75.75 0 00.717-.557c.516-.845 1.212-1.052 1.802-.893.622.166 1.201.737 1.201 1.971 0 2.2-1.686 3.938-3.75 3.938-2.063 0-3.75-1.738-3.75-3.938 0-1.234.58-1.805 1.201-1.971.156-.042.318-.059.484-.047z"/></svg><svg viewBox="0 0 20 20" id="bird"><path d="M13.25.003a6.73 6.73 0 00-4.772 1.975C7.14 3.314 6.319 5.31 5.779 7.198 5.24 9.087 5 10.833 5 11.812v.006L3.198 13.62c-.154-.039-.272-.12-.448-.12A2.261 2.261 0 00.5 15.75c0 1.028.77 1.766 1.72 2.03.264.95 1.002 1.72 2.03 1.72a2.261 2.261 0 002.25-2.25c0-.176-.081-.294-.12-.448L8.182 15h.005c.83 0 2.538-.238 4.468-.776 1.93-.539 4.017-1.35 5.368-2.701 2.629-2.631 2.629-6.916 0-9.545A6.73 6.73 0 0013.25.003zm0 1.491c1.342 0 2.684.516 3.712 1.544a5.238 5.238 0 010 7.424c-.993.993-2.903 1.81-4.711 2.314-1.69.472-3.197.65-3.8.677L6.547 11.55c.026-.781.203-2.291.674-3.938.502-1.757 1.31-3.566 2.317-4.573a5.234 5.234 0 013.712-1.544zM5.908 13.031l1.06 1.06-2.328 2.33.257.49c.075.14.103.24.103.339a.74.74 0 01-.75.75.74.74 0 01-.75-.75v-.75h-.75a.74.74 0 01-.75-.75.74.74 0 01.75-.75c.1 0 .198.028.34.102l.49.258 2.328-2.329z"/></svg><svg viewBox="0 0 19 19" id="bread"><path d="M14.084.997c-.563.024-1.152.097-1.752.214-2.402.468-5.059 1.72-7.23 3.89C2.93 7.274 1.676 9.93 1.208 12.333c-.468 2.402-.232 4.6 1.028 5.86.63.629 1.505.879 2.356.788.85-.092 1.705-.46 2.601-1 1.793-1.077 3.769-2.871 5.842-4.945 2.074-2.073 3.868-4.052 4.945-5.844.54-.897.908-1.749 1-2.6.09-.85-.159-1.725-.788-2.355-.63-.629-1.496-1.002-2.502-1.16a8.15 8.15 0 00-1.606-.079zm.041 1.518c.472-.011.909.02 1.3.082.785.125 1.386.38 1.706.7.319.32.412.623.357 1.134-.055.51-.32 1.202-.794 1.99-.946 1.573-2.68 3.514-4.72 5.554-2.039 2.04-3.98 3.773-5.554 4.72-.787.473-1.479.739-1.99.793-.51.055-.814-.038-1.133-.357-.639-.638-1.026-2.402-.615-4.512.14-.717.396-1.47.706-2.226 1.518.418 2.46.99 2.46.99a.751.751 0 10.803-1.266s-1.029-.62-2.616-1.095c.355-.64.761-1.271 1.248-1.872 2.16.369 3.566 1.233 3.566 1.233a.75.75 0 10.802-1.266s-1.26-.756-3.181-1.239a12.765 12.765 0 012.294-1.682c1.835.378 3.07 1.178 3.07 1.178a.75.75 0 10.832-1.248s-.746-.468-1.895-.902c.628-.234 1.25-.426 1.848-.542a9.024 9.024 0 011.506-.167z"/></svg><svg viewBox="0 0 15 14" id="by-products"><path d="M3.938.375c-.792 0-1.565.342-2.195.656-.629.315-1.104.631-1.104.631a.594.594 0 00-.264.494V5.72a.594.594 0 00.923.494s.416-.278.974-.557 1.269-.531 1.666-.531c.395 0 .923.234 1.516.531.594.297 1.254.657 2.046.657.792 0 1.454-.36 2.048-.657.594-.297 1.12-.531 1.514-.531.396 0 1.107.252 1.666.531.558.28.974.557.974.557a.594.594 0 00.923-.494V2.156a.593.593 0 00-.264-.494s-.475-.316-1.104-.63c-.63-.315-1.403-.657-2.194-.657-.792 0-1.452.36-2.046.656-.594.297-1.121.532-1.517.532-.396 0-.923-.235-1.517-.532C5.39.734 4.73.375 3.938.375zm0 1.188c.395 0 .923.234 1.516.53.594.297 1.254.657 2.046.657.792 0 1.452-.36 2.046-.656.593-.297 1.12-.531 1.517-.531.395 0 1.106.251 1.665.53.407.204.56.312.71.407v2.198c-.094-.05-.078-.052-.181-.104-.63-.315-1.403-.657-2.194-.657-.792 0-1.452.36-2.046.657-.594.297-1.121.531-1.517.531-.396 0-.923-.234-1.517-.531-.594-.297-1.254-.657-2.045-.657-.793 0-1.568.342-2.197.657-.102.05-.086.052-.179.102V2.5c.15-.095.303-.203.71-.406.559-.28 1.27-.531 1.666-.531zm0 5.937c-.792 0-1.565.342-2.195.656-.629.315-1.104.631-1.104.631a.594.594 0 00-.264.494v3.563a.594.594 0 00.923.494s.416-.278.974-.557 1.269-.531 1.666-.531c.395 0 .923.234 1.516.531.594.297 1.254.656 2.046.656.792 0 1.454-.359 2.048-.656.594-.297 1.12-.531 1.514-.531.396 0 1.107.252 1.666.531.558.28.974.557.974.557a.593.593 0 00.923-.494V9.28a.593.593 0 00-.264-.494s-.475-.316-1.104-.63c-.63-.315-1.403-.657-2.194-.657-.792 0-1.452.36-2.046.656-.594.297-1.121.531-1.517.531-.396 0-.923-.234-1.517-.53C5.39 7.858 4.73 7.5 3.938 7.5zm0 1.188c.395 0 .923.234 1.516.53.594.297 1.254.657 2.046.657.792 0 1.452-.36 2.046-.656.593-.297 1.12-.531 1.517-.531.395 0 1.106.251 1.665.53.407.204.56.312.71.407v2.198c-.094-.05-.078-.053-.181-.104-.63-.315-1.403-.656-2.194-.656-.792 0-1.452.359-2.046.656-.594.297-1.121.531-1.517.531-.396 0-.923-.234-1.517-.531-.594-.297-1.254-.656-2.045-.656-.793 0-1.568.341-2.197.656-.102.05-.086.052-.179.102V9.625c.15-.095.303-.203.71-.406.559-.28 1.27-.531 1.666-.531z"/></svg><svg viewBox="0 0 16 16" id="cakes"><path d="M7.313.188v.867c0 .12-.02.144-.093.227-.07.088-.218.195-.418.325-.292.19-.64.603-.927 1.03-1.114.055-2.014.297-2.556.779a2.19 2.19 0 00-.747 1.568c-.622.097-1.17.348-1.577.76-.538.534-.807 1.3-.807 2.162 0 1.016.514 1.976 1.377 2.71l.803 3.617c.18.807.909 1.392 1.744 1.392h7.593c.83 0 1.559-.585 1.735-1.392l.78-3.497a3.493 3.493 0 001.405-2.83c0-1.484-.872-2.588-1.939-3.238-.918-.556-1.967-.719-2.922-.788C10.448 1.496 8.12.503 8.12.503L7.313.187zm.862 1.725c.557.297 1.512.932 1.512 2.43v.595h.594c.854 0 1.962.245 2.788.751.826.5 1.368 1.178 1.368 2.217 0 .603-.19 1.02-.39 1.322a2.08 2.08 0 00-.649-.487c-.547-.273-1.252-.352-1.897-.028-.914.455-1.387 1.04-2.027 1.438-.635.4-1.498.724-3.349.724-1.596 0-2.806-.408-3.595-.983-.789-.576-1.155-1.285-1.155-1.986 0-.621.176-1.043.455-1.326.232-.228.56-.38 1.01-.432.28.552.748 1.058 1.411 1.438.993.57 2.394.914 4.249.914V7.312c-1.707 0-2.904-.324-3.655-.756-.752-.431-1.049-.937-1.1-1.387-.027-.269.042-.584.362-.867.32-.283.928-.552 2.018-.552h.445l.126-.431c.078-.27.334-.441.756-.72.208-.134.45-.287.668-.533.032-.037.023-.111.055-.153zm4.272 7.78c.149.004.297.046.432.11a.84.84 0 01.278.218l-.872 3.953a.595.595 0 01-.58.463H4.112a.596.596 0 01-.585-.463l-.556-2.505a7.41 7.41 0 001.679.468l.297 1.313h1.215l-.269-1.206c.079.005.149.018.232.018.44 0 .826-.023 1.188-.06v1.248H8.5v-1.438c.668-.162 1.188-.39 1.605-.654.01-.005.014-.01.023-.014L9.65 13.25h1.216l.728-3.21c.14-.097.278-.19.436-.269a.896.896 0 01.418-.079z"/></svg><svg viewBox="0 0 16 20" id="canned"><path d="M8 .5c-1.954 0-3.726.343-5.077.943-.676.3-1.25.665-1.685 1.122C.803 3.023.5 3.608.5 4.25c0 .642.303 1.227.738 1.685.43.451.995.812 1.658 1.11C1.473 7.415.5 7.977.5 8.75c0 .064.016.126.03.188H.5V17c0 .615.371 1.113.817 1.465.446.351 1.008.616 1.673.838C4.32 19.746 6.07 20 8 20c1.931 0 3.68-.254 5.01-.697.665-.222 1.227-.487 1.673-.838.446-.352.817-.85.817-1.465V8.937h-.03c.014-.061.03-.123.03-.187 0-.773-.973-1.336-2.396-1.705.663-.298 1.228-.659 1.658-1.11.435-.458.738-1.043.738-1.685 0-.642-.303-1.227-.738-1.685-.436-.457-1.01-.821-1.685-1.122C11.727.843 9.954.5 8 .5zM8 2c1.774 0 3.376.33 4.468.814.546.243.96.526 1.207.786.247.26.325.464.325.65s-.078.39-.325.65c-.248.26-.661.543-1.207.786C11.376 6.17 9.774 6.5 8 6.5s-3.376-.33-4.468-.814c-.546-.243-.96-.526-1.207-.786C2.078 4.64 2 4.436 2 4.25s.078-.39.325-.65c.248-.26.661-.543 1.207-.786C4.624 2.33 6.226 2 8 2zm-6 8.168c1.462.564 3.78.832 6 .832s4.538-.268 6-.832V17c0 .006-.009.1-.246.287-.237.187-.662.406-1.219.592-1.113.371-2.739.621-4.535.621-1.796 0-3.422-.25-4.535-.621-.557-.186-.982-.405-1.219-.592C2.01 17.1 2 17.007 2 17v-6.832z"/></svg><svg viewBox="0 0 22 22" id="cereals"><path d="M14.95.263l-.594.054c-.889.08-1.875.483-2.764 1.144-.888.66-1.678 1.595-2.019 2.78-.055.192-.095.38-.125.563-.094-.14-.186-.28-.289-.406l-.394-.48-.495.373C6.878 5.338 5.314 6.648 4.905 8.978a5.229 5.229 0 00-.086.794c-.113-.175-.228-.366-.334-.514l-.342-.476-.508.294c-1.56.9-2.91 2.309-3.296 4.592-.265 1.558.2 2.78.821 3.57.31.396.655.688.971.894.313.203.554.329.886.368.206.028.368 0 .523-.05-.05.156-.078.318-.05.527.04.333.166.574.369.887.205.318.498.662.891.973.788.623 2.006 1.088 3.558.825 2.28-.386 3.683-1.753 4.58-3.304l.295-.51-.478-.345c-.156-.112-.356-.235-.543-.355.272-.01.553-.033.852-.087h.002c2.286-.386 3.545-1.901 4.643-3.35l.391-.516-.514-.394a6.29 6.29 0 00-.354-.248c.155-.025.313-.057.474-.1 1.159-.31 2.083-1.08 2.754-1.943.67-.863 1.1-1.818 1.23-2.668v-.007l.097-.745-.605-.111s-.802-.155-1.96-.185a4.76 4.76 0 00.906-.71c.877-.881 1.217-2.158 1.402-3.213.185-1.055.183-1.928.183-1.928v-.65h-.648s-.868 0-1.919.185c-1.05.186-2.323.527-3.2 1.407-.28.281-.503.575-.687.87a12.952 12.952 0 00-.157-1.902l-.102-.59zm5.347 1.401c-.017.313 0 .442-.095.98-.164.936-.522 1.998-1.041 2.52h-.002c-.738.743-1.513.957-2.151.98-.32.012-.601-.03-.802-.084-.086-.023-.154-.06-.204-.086-.026-.05-.063-.116-.086-.2a2.784 2.784 0 01-.087-.8c.02-.636.23-1.412.985-2.17.52-.52 1.577-.88 2.508-1.045.536-.094.664-.078.975-.095zm-6.466.22c.096.906.223 2.75-.502 4.642-.332.844-.675 1.113-.893 1.21a.612.612 0 01-.463.026c.033.012-.148-.075-.324-.22a2.804 2.804 0 01-.555-.62c-.344-.53-.584-1.247-.274-2.32v-.001c.242-.84.834-1.567 1.545-2.096.495-.368.986-.478 1.466-.621zM8.442 5.87c.649 1.152 1.083 2.868.803 4.429a3.584 3.584 0 01-.943 1.872 2.282 2.282 0 01-.536.416c-.06.03-.101.036-.128.04a1.853 1.853 0 01-.308-.18 3.01 3.01 0 01-.65-.644c-.416-.564-.738-1.366-.502-2.582l.001-.007.001-.005c.272-1.559 1.195-2.476 2.262-3.34zm6.306.505c.06.187.134.357.317.542.166.167.316.242.475.298a8.71 8.71 0 00-.565.184l-.01.004-.01.004a4.864 4.864 0 00-.86.453c.158-.247.309-.522.44-.857L14.538 7V7c.079-.206.148-.414.211-.623zm4.323 1.73c.6.012.704.047 1.03.086-.16.488-.316 1.006-.715 1.519-.541.697-1.264 1.27-2.065 1.486-1.072.288-1.785.038-2.304-.31a2.742 2.742 0 01-.606-.558c-.14-.176-.22-.358-.206-.317a.65.65 0 01.024-.49c.097-.219.366-.563 1.2-.902 1.215-.442 2.58-.533 3.642-.514zm-8.462.237c.072.068.146.147.216.204.266.22.468.35.708.438v.002a1.92 1.92 0 001.43-.063c.066-.029.128-.078.192-.115-.036.062-.083.123-.111.187a2.005 2.005 0 00-.073 1.42c.083.253.214.457.428.726.06.076.142.157.216.235-.139-.01-.277-.024-.418-.028a8.893 8.893 0 00-1.712.12 4.716 4.716 0 00-1.432.445c.207-.406.376-.865.469-1.384.129-.72.148-1.462.087-2.187zm-6.836 2.282c.562.892 1.104 2.014 1.02 3.582-.112 1.314-.54 2.077-.94 2.511a1.96 1.96 0 01-.543.426c-.07.035-.137.046-.17.052-.036-.017-.152-.057-.303-.155a2.808 2.808 0 01-.659-.609c-.428-.543-.766-1.332-.56-2.545v-.001c.274-1.618 1.1-2.526 2.155-3.26zm9.158 2.036a6.68 6.68 0 013.155.874c-.881 1.094-1.76 1.99-3.292 2.246h-.005l-.004.001c-1.337.242-2.135-.08-2.663-.48a2.564 2.564 0 01-.761-.962c.004-.026.01-.07.04-.132.07-.143.206-.344.403-.542a3.264 3.264 0 011.87-.912h.007l.007-.001c.427-.072.842-.1 1.243-.092zm-6.892.375c.18.183.362.344.535.469.303.217.535.35.82.419h.001c.301.072.529.02.743-.073a1.13 1.13 0 00-.063.762l.001.002c.095.366.334.842.803 1.317a6.914 6.914 0 00-1.172-.045h-.01l-.01.002c-.848.07-1.546.266-2.117.526.256-.57.447-1.266.518-2.11l.001-.01v-.01a7.05 7.05 0 00-.05-1.25zm2.31 4.148c1.271.057 2.217.539 2.995 1.033-.733 1.056-1.641 1.89-3.251 2.162-1.21.205-1.999-.134-2.54-.563a2.805 2.805 0 01-.606-.66c-.097-.15-.137-.264-.153-.303.006-.035.016-.101.051-.171.074-.147.21-.346.43-.549.436-.403 1.2-.834 2.51-.946.195-.01.383-.01.565-.003zm-5.196.02c0 .002-.017.003.037.01h-.01l-.01-.002c.011.002-.017-.008-.017-.009zm1.62 1.598c.007.048.008.029.01.034 0 .002-.008-.024-.007-.014l-.001-.01-.002-.01z"/></svg><svg viewBox="0 0 19 18" id="cereals-2"><path d="M15.718-.009a.75.75 0 00-.668.49L11.786 9H3c0-.836.664-1.5 1.5-1.5.172 0 .333.04.492.1a.75.75 0 00.979.011.75.75 0 00.304-.56C6.468 6.446 7.012 6 7.687 6c.365 0 .687.14.953.363a.75.75 0 00.521.229.75.75 0 00.574-.229c.266-.223.588-.363.953-.363.212 0 .405.062.585.152l.534-1.394a2.99 2.99 0 00-.912-.232.75.75 0 00-.207-.026c-.55 0-1.06.16-1.5.419a2.955 2.955 0 00-1.5-.42c-1.131 0-2.11.639-2.62 1.571A2.806 2.806 0 004.5 6c-1.648 0-3 1.352-3 3H0v.75c0 7.01 6.556 8.227 6.75 8.25l4.646-.012c.066-.012 6.624-1.229 6.624-8.238V9H16.5a2.99 2.99 0 00-2.021-2.833l1.971-5.148a.75.75 0 00-.732-1.028zm-1.781 7.597C14.546 7.778 15 8.328 15 9h-1.605l.542-1.412zM1.532 10.5h14.956c-.426 5.068-5.132 5.973-5.217 6l-4.39.012c-.208-.04-4.923-.944-5.349-6.012z"/></svg><svg viewBox="0 0 39 39" id="chart"><path d="M19.5 0C8.754 0 0 8.754 0 19.5S8.754 39 19.5 39 39 30.246 39 19.5 30.246 0 19.5 0zM18 3.07v17.051L30.059 32.18A16.457 16.457 0 0119.5 36C10.371 36 3 28.629 3 19.5 3 10.875 9.574 3.832 18 3.07zm3 0c7.922.715 14.215 7.008 14.918 14.93H21V3.07zM23.121 21h12.797a16.345 16.345 0 01-3.738 9.059L23.12 21z"/></svg><svg viewBox="0 0 22 26" id="cutlery"><path d="M4.625.25v10.625H3.562A1.048 1.048 0 012.5 9.812V.268H.375v9.546A3.204 3.204 0 003.563 13h1.062v12.75H6.75V13h1.063A3.204 3.204 0 0011 9.812V.268H8.875v9.546c0 .598-.464 1.062-1.063 1.062H6.75V.25H4.625zm10.625 0v25.5h2.125v-8.5h4.25V5.562s.015-1.282-.643-2.598C20.324 1.648 18.792.25 16.312.25H15.25zm2.125 2.386c.856.258 1.415.692 1.706 1.275.404.809.419 1.651.419 1.651v9.563h-2.125V2.636z"/></svg><svg viewBox="0 0 12 21" id="drinks"><path d="M12 9c0-1.88-1.201-3.943-3-4.406V.75A.748.748 0 008.25 0h-4.5A.748.748 0 003 .75v3.844C1.201 5.057 0 7.119 0 9v.75c0 .574.217 1.102.574 1.5A2.242 2.242 0 000 12.75v1.5c0 .574.217 1.102.574 1.5A2.242 2.242 0 000 17.25v1.5A2.25 2.25 0 002.25 21h7.5A2.25 2.25 0 0012 18.75v-1.5c0-.574-.217-1.102-.574-1.5.357-.398.574-.926.574-1.5v-1.5c0-.574-.217-1.102-.574-1.5.357-.398.574-.926.574-1.5V9zM4.5 1.5h3V3h-3V1.5zm6 8.25c0 .416-.34.75-.75.75h-4.5a.748.748 0 00-.75.75c0 .416.334.75.75.75h4.5c.41 0 .75.334.75.75v1.5c0 .41-.34.75-.75.75h-4.5a.748.748 0 00-.75.75c0 .416.334.75.75.75h4.5c.41 0 .75.34.75.75v1.5c0 .41-.34.75-.75.75h-7.5a.751.751 0 01-.75-.75v-1.5c0-.41.334-.75.75-.75s.75-.334.75-.75a.748.748 0 00-.75-.75.751.751 0 01-.75-.75v-1.5c0-.416.334-.75.75-.75s.75-.334.75-.75a.748.748 0 00-.75-.75.748.748 0 01-.75-.75V9c0-1.541 1.096-3 2.25-3 .416 0 .75-.334.75-.75V4.5h3v.75c0 .416.334.75.75.75 1.154 0 2.25 1.459 2.25 3v.75z"/></svg><svg viewBox="0 0 17 16" id="eggs"><path d="M5.531.188a.594.594 0 00-.334.109l-.002.002C3.798.448 2.574 1.357 1.709 2.655.771 4.065.187 5.872.187 7.645c0 3.152 2.158 5.099 4.428 5.508.915 1.415 2.53 2.472 4.74 2.472 1.773 0 3.58-.583 4.99-1.521 1.294-.862 2.197-2.082 2.351-3.472a.594.594 0 00.116-.35c0-1.552-1.058-2.885-2.467-3.823-1.119-.745-2.489-1.25-3.892-1.433-.375-1.218-.972-2.35-1.754-3.22C7.842.852 6.75.187 5.531.187zm0 1.187c.78 0 1.579.44 2.285 1.225.556.62 1.03 1.446 1.364 2.347-3.465.09-5.43 2.798-5.43 5.334 0 .492.097.986.241 1.47-1.424-.56-2.616-1.9-2.616-4.107 0-1.505.521-3.127 1.322-4.33.8-1.203 1.841-1.939 2.834-1.939zm3.825 4.75c1.505 0 3.127.521 4.33 1.322 1.203.8 1.939 1.841 1.939 2.834 0 .993-.736 2.034-1.939 2.835-1.203.8-2.825 1.322-4.33 1.322-2.98 0-4.418-2.179-4.418-4.157 0-1.978 1.437-4.156 4.418-4.156z"/></svg><svg viewBox="0 0 22 18" id="email"><path d="M2.75.125C1.514.125.5 1.181.5 2.469v12.5c0 1.288 1.014 2.344 2.25 2.344h16.5c1.236 0 2.25-1.056 2.25-2.344v-12.5c0-1.288-1.014-2.344-2.25-2.344H2.75zm0 1.563h16.5c.053 0 .094.018.14.03L11 7.767 2.61 1.718c.046-.012.087-.03.14-.03zM2 3.176l9 6.494 9-6.494v11.792c0 .44-.328.781-.75.781H2.75c-.422 0-.75-.342-.75-.781V3.177z"/></svg><svg viewBox="0 0 48 48" id="fat"><path d="M14.418 4.002a1.508 1.508 0 00-1.207.75c-.246.446-.27.973-.047 1.43l4.207 8.695c.059.141.14.27.246.375l-3.96 6.774H5.522a1.5 1.5 0 00-1.312.738 1.48 1.48 0 000 1.524 1.5 1.5 0 001.312.738h8.133l4.383 7.5-4.805 8.25a1.481 1.481 0 00-.046 1.523c.269.48.773.774 1.324.774a1.498 1.498 0 001.3-.797l4.829-8.25h8.765l3.07 5.25c.41.715 1.337.95 2.051.539a1.497 1.497 0 00.54-2.05l-3.06-5.24 4.817-8.25c.27-.456.27-1.042 0-1.5l-4.394-7.522c.105-.106.187-.235.246-.376l3.785-7.851h5.062a1.5 1.5 0 001.313-.738 1.48 1.48 0 000-1.524 1.5 1.5 0 00-1.313-.738h-6c-.574 0-1.101.328-1.359.844l-3.926 8.156h-10.43L15.884 4.87a1.523 1.523 0 00-1.465-.868zm6.223 12.024h8.765l4.383 7.5-4.383 7.5h-8.765l-4.383-7.5 4.383-7.5z"/></svg><svg viewBox="0 0 33 42" id="fire"><path d="M16.5 0l-.973.832S11.695 4.09 7.852 8.684C4.008 13.277 0 19.184 0 25.102c0 9.093 7.406 16.5 16.5 16.5 9.094 0 16.5-7.407 16.5-16.5 0-5.918-4.008-11.825-7.852-16.418C21.305 4.09 17.473.832 17.473.832L16.5 0zm0 4.113c.785.692 3.176 2.696 6.352 6.492C26.508 14.977 30 20.625 30 25.102c0 4.875-2.59 9.105-6.457 11.472A7.233 7.233 0 0024 34.102c0-2.895-1.688-5.766-3.258-8.11-1.558-2.355-3.117-4.125-3.117-4.125L16.5 20.578l-1.125 1.29s-1.57 1.792-3.129 4.148C10.687 28.383 9 31.242 9 34.102c0 .867.176 1.699.457 2.472C5.59 34.207 3 29.977 3 25.102c0-4.477 3.492-10.125 7.148-14.497 3.176-3.796 5.567-5.8 6.352-6.492zm0 21.223c.563.68.879.996 1.758 2.32 1.43 2.157 2.742 4.91 2.742 6.446a4.47 4.47 0 01-3.563 4.406c-.316.023-.62.094-.937.094-.316 0-.621-.07-.938-.094A4.47 4.47 0 0112 34.102c0-1.477 1.313-4.243 2.754-6.422.879-1.325 1.195-1.653 1.746-2.344z"/></svg><svg viewBox="0 0 22 17" id="fish"><path d="M7.25.5a.75.75 0 00-.387 1.395c.368.22.598.443.797.914.17.402.277 1.065.31 1.957a12.095 12.095 0 00-2.123 1.488c-.244-.302-.39-.533-.982-1.064-.9-.807-2.138-1.69-3.615-1.69a.75.75 0 00-.671 1.084c.464.929 1.42 2.166 1.42 4.166 0 .397-.207 1.33-.497 2.17-.29.841-.697 1.672-.853 1.879A.75.75 0 001.25 14c2.761 0 4.08-1.81 4.639-2.701a10.659 10.659 0 003.55 2.156c-.073.314-.285.85-.577 1.324-.348.566-.697 1.002-.697 1.002A.75.75 0 008.75 17h2.812a.75.75 0 00.39-.108c-.068.04.17-.087.41-.226.24-.14.553-.335.89-.6a6.783 6.783 0 001.929-2.385c2.618-.632 4.739-2.124 5.862-3.783h.003c.149-.22.351-.504.428-.922.076-.419-.03-.893-.279-1.342a.742.742 0 00-.082-.12c-.73-.869-2.07-2.236-4.11-3.13a.754.754 0 00-.024-.116s-.492-2.734-2.674-3.704A.75.75 0 0014 .5H7.25zM8.85 2h4.9c.68.346 1.151 1.17 1.442 1.808a10.833 10.833 0 00-2.505-.308c-1.222 0-2.31.254-3.257.604-.064-.729-.173-1.374-.387-1.881C8.999 2.12 8.9 2.095 8.85 2zm3.837 3c3.985 0 6.161 2.18 7.222 3.43.066.143.094.244.088.276-.007.04-.058.146-.196.352C18.674 10.72 15.804 12.5 12.5 12.5c-3.35 0-6.22-2.78-6.22-2.78a.75.75 0 00-1.201.193s-.898 1.603-2.517 2.265c.114-.28.25-.458.358-.768.32-.925.58-1.869.58-2.66 0-1.172-.307-2.143-.639-2.944.344.212.705.238 1.002.504.774.693 1.28 1.382 1.28 1.382a.75.75 0 001.12.103S9.337 5 12.687 5zm3.563 1.5a.75.75 0 100 1.5.75.75 0 000-1.5zm-5.323 7.348A8.903 8.903 0 0012.5 14c.255 0 .5-.03.75-.047a5.588 5.588 0 01-1.878 1.547h-1.21c.3-.49.625-1.035.765-1.652z"/></svg><svg viewBox="0 0 24 24" id="fruits"><path d="M20.266 3a.714.714 0 00-.49.215l-1.638 1.637V3.72a.716.716 0 00-.736-.714.714.714 0 00-.536.268s-.68.862-1.15 2.234c-.387-.869-.795-1.741-1.346-2.293a.716.716 0 00-1.01 0c-.385.385-.508.834-.628 1.325-.12.49-.193 1.028-.242 1.537-.063.65-.054.877-.062 1.23-2.654.077-5.673.763-8.346 3.403l-.005.006c-2.025 2.047-2.985 3.959-3.071 5.735a5.185 5.185 0 00.162 1.534.714.714 0 00.103.385c.327.983.929 1.865 1.684 2.622.756.757 1.634 1.35 2.611 1.693a.714.714 0 00.396.145c.412.107.839.173 1.286.17 1.811-.01 3.783-.984 5.97-3.174 2.647-2.652 3.358-5.99 3.47-8.28.353-.003.579.009 1.227-.047.509-.043 1.048-.11 1.54-.226.492-.115.942-.234 1.33-.621a.714.714 0 000-1.01c-.312-.312-.705-.54-1.169-.792-.336-.183-.708-.355-1.074-.525 1.44-.484 2.243-1.244 2.243-1.244a.714.714 0 00-.505-1.219h-1.132l1.637-1.637A.714.714 0 0020.266 3zm-6.234 2.45c.213.392.365.584.555 1.012.41.924.708 1.713.723 1.752v.002a.713.713 0 00.51.488c.072.028.818.318 1.727.726.37.166.732.347 1.08.524-.277.044-.543.098-.835.123-.89.076-1.63.068-1.704.067a.714.714 0 00-.6.209.717.717 0 00-.092.109l-.006.01a.724.724 0 00-.111.355 2.149 2.149 0 00-2.095-2.103.714.714 0 00.636-.72s.001-.852.092-1.788c.026-.268.078-.51.12-.767zm2.89 1.634l.033.03c-.016.003-.025.007-.041.009l.008-.04zM7.12 10.147h.307c.402 0 .714.312.714.714v.714h-.536a.725.725 0 00-.128.008c-.017 0-.033-.008-.05-.008h-2.17a10.514 10.514 0 011.863-1.428zm2.315 0h.848c.402 0 .714.312.714.714v.714h-.535a.707.707 0 00-.11.008c-.023 0-.045-.008-.069-.008H9.57v-.714c0-.251-.053-.49-.134-.714zm2.856 0h.848c.402 0 .715.312.715.714v.848a2.103 2.103 0 00-.714-.134h-.715v-.714c0-.251-.053-.49-.134-.714zM3.98 13.003h.592c.402 0 .714.312.714.714v.714h-.536a.708.708 0 00-.109.008c-.023 0-.046-.008-.07-.008H3.049c.23-.451.549-.93.931-1.428zm2.6 0h.848c.402 0 .714.312.714.714v.714h-.357a.712.712 0 00-.176.02c-.06-.006-.12-.02-.181-.02h-.714v-.714c0-.25-.053-.49-.134-.714zm2.99 0h.714c.402 0 .714.312.714.714v.714h-.357a.712.712 0 00-.176.02c-.06-.006-.119-.02-.18-.02h-.715v-.714c0-.024-.008-.046-.008-.07a.713.713 0 00.008-.109v-.535zm2.856 0h.714c.402 0 .715.312.715.714v.848a2.103 2.103 0 00-.714-.134h-.715v-.714c0-.019-.007-.035-.008-.053a.714.714 0 00.008-.126v-.535zm-9.88 2.856h2.026c.402 0 .714.312.714.714v.714h-.357a.715.715 0 00-.21.028h-.002c-.05-.004-.094-.028-.145-.028H2.484a3.858 3.858 0 01-.053-.767c.01-.209.069-.437.114-.66zm4.168 0h.714c.402 0 .714.312.714.714v.714h-.357a.715.715 0 00-.21.028h-.002c-.05-.004-.094-.028-.145-.028h-.714v-.714c0-.024-.008-.046-.009-.07a.715.715 0 00.009-.108v-.536zm2.856 0h.714c.402 0 .714.312.714.714v.848a2.104 2.104 0 00-.714-.134H9.57v-.714c0-.024-.008-.046-.008-.07a.713.713 0 00.008-.108v-.536zm2.856 0h.714c.402 0 .715.312.715.714v.025a9.821 9.821 0 01-1.429 1.972v-1.997c0-.024-.007-.046-.008-.07a.707.707 0 00.008-.108v-.536zM3 18.715h1.57c.403 0 .715.313.715.715v1.576a6.38 6.38 0 01-1.32-1.024A6.003 6.003 0 013 18.715zm3.713 0h.714c.402 0 .714.313.714.715v2.014a4.136 4.136 0 01-.898.128H7.24c-.181 0-.353-.037-.527-.062v-2.08c0-.024-.008-.046-.009-.07a.715.715 0 00.009-.109v-.536zm2.856 0h.714c.402 0 .714.313.714.715v.465c-.502.406-.98.74-1.428.985v-1.45c0-.024-.008-.046-.008-.07a.713.713 0 00.008-.109v-.536z"/></svg><svg viewBox="0 0 23 19" id="geo"><path d="M11.5.125a4.7 4.7 0 00-4.687 4.688c0 .774.292 1.568.677 2.444.324.738.734 1.505 1.15 2.243H4.47a.781.781 0 00-.726.491L.618 17.804a.781.781 0 00.726 1.071h20.312a.782.782 0 00.727-1.071L19.258 9.99a.782.782 0 00-.727-.491H14.36c.417-.738.826-1.505 1.15-2.243.385-.876.678-1.67.678-2.444A4.7 4.7 0 0011.5.125zm0 1.563a3.115 3.115 0 013.125 3.125c0 .303-.196 1.024-.543 1.815-.348.791-.824 1.683-1.303 2.509-.638 1.099-.922 1.49-1.279 2.026-.356-.536-.641-.927-1.279-2.026-.479-.826-.955-1.718-1.303-2.509-.347-.79-.543-1.512-.543-1.816A3.115 3.115 0 0111.5 1.688zm0 1.562a1.563 1.563 0 100 3.125 1.563 1.563 0 000-3.125zm-6.503 7.813h4.58c.688 1.107 1.28 2.005 1.28 2.005l.643.93.644-.93s.591-.897 1.279-2.005h4.58l2.5 6.25H2.497l2.5-6.25z"/></svg><svg viewBox="0 0 22 26" id="glass"><path d="M1.438.25C1.114.25.807.4.608.648c-.2.25-.283.581-.208.897l2.54 11.414 1.702 11.878a1.05 1.05 0 001.046.913h10.625c.53 0 .979-.39 1.054-.913l1.701-11.903L21.6 1.544a1.054 1.054 0 00-.207-.896 1.067 1.067 0 00-.83-.398H1.438zm1.328 2.125h16.468L18.77 4.5H6.75v2.125h11.546l-1.867 8.4A5.553 5.553 0 0111 19.375a5.553 5.553 0 01-5.429-4.35l-.53-2.39-.018-.083L2.766 2.375zm3.27 17.29A7.668 7.668 0 0011 21.5a7.63 7.63 0 004.956-1.834l-.565 3.959H6.61l-.573-3.96z"/></svg><svg viewBox="0 0 30 27" id="heart"><path d="M8.625.25C4.317.25.772 3.496.24 7.655c-.074.34-.116.697-.116 1.095 0 4.856 3.71 9.24 7.255 12.493 3.536 3.263 7.072 5.413 7.072 5.413l.548.34.548-.34s3.536-2.15 7.08-5.413c3.536-3.254 7.246-7.637 7.246-12.493 0-.398-.041-.747-.107-1.079C29.227 3.496 25.69.25 21.375.25c-2.64 0-4.823 1.378-6.375 3.27C13.447 1.629 11.264.25 8.625.25zm0 2.125c2.34 0 4.35 1.262 5.462 3.138L15 7.057l.913-1.544c1.112-1.876 3.12-3.138 5.462-3.138 3.262 0 5.901 2.432 6.291 5.595l.017.083c.042.2.067.423.067.697 0 1.387-.44 2.831-1.17 4.25h-8.957l-1.56 2.333-4.25-6.375L9.122 13H3.429c-.74-1.42-1.179-2.864-1.179-4.25 0-.283.025-.507.066-.698l.017-.05v-.05c.398-3.146 3.03-5.578 6.292-5.578zm3.187 10.418l4.25 6.375 2.69-4.042h6.507c-1.162 1.635-2.59 3.196-4.075 4.557-3.088 2.847-5.695 4.433-6.184 4.74-.49-.307-3.096-1.893-6.193-4.74-1.477-1.361-2.905-2.922-4.067-4.557h5.512l1.56-2.333z"/></svg><svg viewBox="0 0 44 45" id="height"><path d="M10 1.281v2.75h24.75v-2.75H10zm12.375 4.125L15.5 12.281H21v19.25h-5.5l6.875 6.875 6.875-6.875h-5.5v-19.25h5.5l-6.875-6.875zM10 6.781v2.75h2.75v-2.75H10zm22 0v2.75h2.75v-2.75H32zm-22 5.5v2.75h2.75v-2.75H10zm22 0v2.75h2.75v-2.75H32zm-22 5.5v2.75h2.75v-2.75H10zm22 0v2.75h2.75v-2.75H32zm-22 5.5v2.75h2.75v-2.75H10zm22 0v2.75h2.75v-2.75H32zm-22 5.5v2.75h2.75v-2.75H10zm22 0v2.75h2.75v-2.75H32zm-22 5.5v2.75h2.75v-2.75H10zm22 0v2.75h2.75v-2.75H32zm-22 5.5v2.75h24.75v-2.75H10z"/></svg><svg viewBox="0 0 48 48" id="imt"><path d="M6.501 10a4.516 4.516 0 00-4.5 4.5v18c0 2.473 2.028 4.5 4.5 4.5h36c2.473 0 4.5-2.027 4.5-4.5v-18c0-2.473-2.027-4.5-4.5-4.5h-36zm0 3h36c.844 0 1.5.656 1.5 1.5v18c0 .844-.656 1.5-1.5 1.5h-36a1.48 1.48 0 01-1.5-1.5v-18c0-.844.657-1.5 1.5-1.5zm4.5 3c-1.64 0-3 1.36-3 3v9c0 1.64 1.36 3 3 3h3c1.641 0 3-1.36 3-3v-9c0-1.64-1.359-3-3-3h-3zm12 0c-1.64 0-3 1.36-3 3v9c0 1.64 1.36 3 3 3h3c1.641 0 3-1.36 3-3v-9c0-1.64-1.359-3-3-3h-3zm9 0c0 1.64 1.36 3 3 3h3c1.641 0 3-1.36 3-3h-9zm-21 3h3v9h-3v-9zm12 0h3v9h-3v-9zm9 3v3h5.215c-.949 1.453-1.957 3.55-2.133 6h2.989c.328-3.246 2.672-5.742 2.93-6v-3h-9z"/></svg><svg viewBox="0 0 48 48" id="info"><path d="M24.5 4C13.754 4 5 12.754 5 23.5S13.754 43 24.5 43 44 34.246 44 23.5 35.246 4 24.5 4zm0 3C33.629 7 41 14.371 41 23.5S33.629 40 24.5 40 8 32.629 8 23.5 15.371 7 24.5 7zM23 13v3h3v-3h-3zm0 6v15h3V19h-3z"/></svg><svg viewBox="0 0 20 28" id="lightning"><path d="M10.785.125l-10.02 17h7.57L4.884 27.75h4.731l9.787-17h-7.612L15.242.125h-4.457zm1.212 2.125h.323L8.867 12.875h6.857l-7.338 12.75h-.581L11.258 15H4.484l7.513-12.75z"/></svg><svg viewBox="0 0 39 39" id="mass"><path d="M4.5 0A4.516 4.516 0 000 4.5v30C0 36.973 2.027 39 4.5 39h30c2.473 0 4.5-2.027 4.5-4.5v-30C39 2.027 36.973 0 34.5 0h-30zm0 3h30c.844 0 1.5.656 1.5 1.5v30c0 .844-.656 1.5-1.5 1.5h-30A1.48 1.48 0 013 34.5v-30C3 3.656 3.656 3 4.5 3zm15 3c-8.05 0-13.008 4.523-13.008 4.523a1.487 1.487 0 00.07 2.274l6 4.875c.258.21.598.328.938.328h12c.34 0 .68-.117.938-.328l6-4.875c.351-.281.55-.692.562-1.137a1.52 1.52 0 00-.504-1.16S27.434 6 19.5 6zm0 3c5.016 0 7.91 1.688 9.457 2.766L24.961 15H21v-3h-3v3h-3.96l-4.009-3.258C11.543 10.687 14.38 9 19.5 9z"/></svg><svg viewBox="0 0 18 20" id="meet"><path d="M8.259.491a.75.75 0 00-.618.323S6.778 2.043 6.17 3.682c-2.372.967-3.91 2.814-4.84 4.579C.357 10.107 0 11.78 0 12.688c0 2.426 1.852 3.635 1.852 3.635l-.044-.029 4.125 3a.75.75 0 00.301.129c.062.036.12.093.182.123.929.465 1.834.454 1.834.454h6s.558.008 1.12-.307c.56-.316 1.13-1.064 1.13-2.13V8.75a2.23 2.23 0 00-.527-1.441.75.75 0 00-.522-.572l-.349-.131c.93-2.37 2.752-4.913 2.752-4.913a.75.75 0 10-1.207-.885S14.73 3.403 13.69 6.072l-2.42-.914c.83-1.8 2.072-3.445 2.072-3.445a.75.75 0 00-.937-1.136.75.75 0 00-.247.21s-1.363 1.77-2.294 3.841L7.73 3.82a13.2 13.2 0 011.13-2.133.75.75 0 00-.6-1.196zM6.768 5.056l4.795 1.813c-2.428.702-4.117 2.312-5.188 3.985a12.916 12.916 0 00-1.465 3.22c-.289.96-.41 1.687-.41 2.176 0 .054.01.1.012.152l-1.82-1.32a.822.822 0 00-.044-.03S1.5 14.387 1.5 12.688c0-.407.3-2.107 1.154-3.73.822-1.56 2.129-3.105 4.114-3.902zM14.25 8s.22.01.416.109c.196.098.334.141.334.641v8.813c0 .621-.18.717-.37.823-.188.106-.38.114-.38.114h-6s-.595-.01-1.166-.296C6.513 17.92 6 17.5 6 16.25c0-.167.09-.893.346-1.743.256-.85.673-1.875 1.295-2.845C8.883 9.722 10.857 8 14.25 8zm-1.512 4.489a.75.75 0 00-.738.761v1.5a.74.74 0 01-.75.75h-1.5a.75.75 0 100 1.5h1.5a2.261 2.261 0 002.25-2.25v-1.5a.75.75 0 00-.762-.761z"/></svg><svg viewBox="0 0 48 49" id="metabolizm"><path d="M24.5 4.281c-1.546 0-3.046.2-4.476.54l.703 2.917a16.145 16.145 0 013.773-.457c4.067 0 7.758 1.489 10.63 3.914L32 13.281l9 3v-9l-3.269 2.18a19.465 19.465 0 00-13.23-5.18zm-16.5 3l2.204 3.305C6.98 14.055 5 18.684 5 23.78c0 1.535.176 3.024.516 4.453l2.918-.68A16.628 16.628 0 018 23.782c0-4.066 1.477-7.758 3.915-10.629L14 16.282l3-9H8zm35.485 12.024l-2.918.68c.281 1.218.434 2.484.434 3.796 0 4.067-1.489 7.758-3.915 10.63l-2.085-3.13-3 9h9l-2.18-3.27A19.465 19.465 0 0044 23.782c0-1.535-.176-3.047-.516-4.476zM8 31.28v9l3.282-2.191c3.48 3.222 8.12 5.191 13.218 5.191 1.536 0 3.036-.175 4.477-.515l-.691-2.918a16.81 16.81 0 01-3.786.433c-4.066 0-7.769-1.476-10.64-3.902L17 34.28l-9-3z"/></svg><svg viewBox="0 0 12 21" id="milk"><path d="M3.75 0A2.258 2.258 0 001.5 2.25c0 .885.598 1.506 1.348 1.875L.604 7.488l-.012.024A4.344 4.344 0 000 9.703v9.047A2.258 2.258 0 002.25 21h7.5A2.258 2.258 0 0012 18.75V9.703c0-.773-.205-1.53-.592-2.191l-.011-.024-2.25-3.363c.755-.37 1.353-.99 1.353-1.875A2.258 2.258 0 008.25 0h-4.5zm0 1.5h4.5a.74.74 0 01.75.75.74.74 0 01-.75.75h-4.5A.74.74 0 013 2.25a.74.74 0 01.75-.75zm.65 3h3.2l2.513 3.773c.252.428.387.926.387 1.43v9.047a.74.74 0 01-.75.75h-7.5a.74.74 0 01-.75-.75V9.703c0-.504.135-.996.387-1.43v-.005L4.4 4.5z"/></svg><svg viewBox="0 0 15 15" id="mushrooms"><path d="M7.5.375C3.572.375.375 3.572.375 7.5c0 .982.196 1.714.772 2.106.577.392 1.24.283 1.881.118.733-.187 1.56-.488 2.433-.721-.2 2.087-.336 3.34-.336 3.84 0 .653.352 1.226.833 1.485.48.26 1.01.297 1.542.297.533 0 1.062-.037 1.542-.297.481-.26.833-.832.833-1.484 0-.501-.136-1.754-.336-3.841.873.233 1.7.534 2.433.721.642.165 1.304.274 1.88-.118.578-.392.773-1.124.773-2.106 0-3.928-3.197-7.125-7.125-7.125zm0 1.188A5.928 5.928 0 0113.438 7.5c0 .822-.17 1.068-.253 1.125-.084.057-.379.087-.919-.051C11.186 8.297 9.47 7.5 7.5 7.5c-1.97 0-3.687.797-4.766 1.074-.54.138-.835.108-.919.05-.084-.056-.252-.302-.252-1.124A5.928 5.928 0 017.5 1.562zm0 7.125c.278 0 .547.043.819.078.211 2.246.368 3.816.368 4.078 0 .33-.046.352-.21.44-.165.089-.526.153-.977.153-.45 0-.812-.064-.976-.153-.165-.088-.212-.11-.212-.44 0-.262.158-1.832.37-4.078.27-.035.54-.079.818-.079z"/></svg><svg viewBox="0 0 20 20" id="nuts"><path d="M10.534.532a2.816 2.816 0 00-1.389.519c-.78.568-1.24 1.406-1.678 2.256-.875 1.699-1.612 3.42-3.223 3.96-1.663.558-2.682 1.607-3.205 2.687a5.579 5.579 0 00-.516 2.915c.072.789.471 2.326 1.89 3.405.87.66 2.083.826 3.41.706.74.806 1.613 1.5 2.62 1.922 3.175 1.33 5.937 1.358 7.986.594 2.049-.763 3.4-2.35 3.55-4.136.089-1.041-.09-1.88-.556-2.485-.466-.605-1.13-.897-1.778-1.09-1.101-.326-2.263-.47-3.264-.949.911-1.922 1.234-3.746 1.08-5.32-.223-2.299-1.45-4.104-3.204-4.74-.611-.222-1.195-.296-1.723-.244zm.164 1.457c.265-.024.592.03 1.046.196 1.106.401 2.046 1.62 2.227 3.474.18 1.854-.423 4.316-2.43 6.976-.964 1.279-2.71 2.203-4.405 2.613-1.696.41-3.323.204-3.815-.17a2.868 2.868 0 01-.474-.486c1.357-.292 3.193-.9 4.971-2.05 2.11-1.365 4.091-3.513 4.67-6.657a.75.75 0 10-1.476-.27c-.492 2.67-2.135 4.455-4.008 5.666-1.767 1.143-3.71 1.722-4.887 1.931-.057-.2-.09-.371-.1-.477v-.003c-.048-.532.005-1.365.373-2.124.367-.76 1.014-1.476 2.332-1.916C7.079 7.902 7.973 5.6 8.8 3.995c.413-.802.82-1.434 1.227-1.731.204-.149.406-.252.671-.275zm2.97 10.163c1.318.664 2.665.81 3.549 1.072.514.152.832.325 1.016.565.185.24.321.63.252 1.445-.093 1.108-.955 2.251-2.578 2.856-1.623.605-3.988.642-6.885-.571-.476-.2-.936-.502-1.37-.861a10.867 10.867 0 002.794-1.134C11.762 16.415 13.165 17 14.75 17a.75.75 0 100-1.5c-1.063 0-2.015-.326-2.994-.914.36-.317.694-.664.984-1.049.35-.464.65-.927.929-1.385z"/></svg><svg viewBox="0 0 14 16" id="oils"><path d="M5.719.188a.594.594 0 00-.594.593v1.781h-.594a.594.594 0 100 1.188h.594v1.378c0 .566-.363 1.074-.877 1.203-2.14.54-3.745 2.03-3.852 3.77a.594.594 0 00-.012.326c.054 1.191.75 2.398 1.698 3.38.987 1.022 2.276 1.818 3.637 1.818h2.375c1.36 0 2.65-.796 3.636-1.818.95-.984 1.647-2.194 1.698-3.387a.595.595 0 00-.011-.322c-.055-.87-.48-1.676-1.167-2.333V5.53a2.977 2.977 0 00-2.969-2.968h-.593V.78a.594.594 0 00-.594-.594H5.719zm.594 1.187H7.5v1.188H6.313V1.375zm0 2.375H7.5v1.378c0 1.076.694 2.084 1.774 2.356 1.493.376 2.517 1.308 2.849 2.204H1.69c.332-.896 1.356-1.828 2.848-2.204 1.08-.272 1.775-1.28 1.775-2.356V3.75zm2.375 0h.593c.992 0 1.781.79 1.781 1.781V6.91a6.58 6.58 0 00-1.498-.578c-.513-.129-.876-.638-.876-1.203V3.75zm-7.03 7.125h10.497c-.189.663-.65 1.455-1.278 2.106-.831.86-1.917 1.457-2.783 1.457H5.719c-.866 0-1.952-.596-2.783-1.457-.629-.65-1.09-1.443-1.278-2.106z"/></svg><svg viewBox="0 0 24 17" id="other-food"><path d="M12 0c-.566 0-1.15.366-1.342.803a1.869 1.869 0 00-.155.79c-2.982.36-5.223 1.799-6.665 4.014C2.274 8.01 1.618 11.26 1.535 15H0v1.5h24V15h-1.535c-.084-3.74-.74-6.99-2.303-9.393-1.442-2.215-3.683-3.654-6.665-4.013a1.869 1.869 0 00-.155-.791C13.149.366 12.566 0 12 0zm0 3c3.35 0 5.478 1.232 6.905 3.425 1.328 2.04 1.973 5.02 2.06 8.575H3.035c.087-3.555.732-6.535 2.06-8.575C6.522 4.232 8.65 3 12 3z"/></svg><svg viewBox="0 0 20 21" id="pasta"><path d="M11.738.988A.75.75 0 0011 1.75v.744H8.937a2.455 2.455 0 00-2.443 2.444V5.5H.5V7h5.994v.563a2.455 2.455 0 002.444 2.443H11v.744c0 1.292.501 2.104.876 2.666.375.563.624.876.624 1.834 0 .958-.249 1.272-.624 1.834-.375.563-.876 1.374-.876 2.666a.752.752 0 001.284.537.75.75 0 00.216-.537c0-.958.249-1.271.624-1.834.375-.562.876-1.374.876-2.666 0-1.292-.501-2.103-.876-2.666-.375-.562-.624-.876-.624-1.834v-9a.75.75 0 00-.762-.762zm3 0A.75.75 0 0014 1.75v9a.752.752 0 001.284.537.75.75 0 00.216-.537v-9a.75.75 0 00-.762-.762zm3 0A.75.75 0 0017 1.75v9a.752.752 0 001.284.537.75.75 0 00.216-.537v-.738L20.006 10l-.012-1.5-1.494.012V7H20V5.5h-1.5V3.994h1.459v-1.5H18.5V1.75a.75.75 0 00-.762-.762zm-8.8 3.006H11V5.5H7.994v-.562c0-.53.413-.944.944-.944zM7.994 7H11v1.506H8.937a.932.932 0 01-.943-.943V7z"/></svg><svg viewBox="0 0 18 18" id="sausages"><path d="M2.25 0a.75.75 0 00-.65 1.122l.334.586C.809 2.142 0 3.228 0 4.5 0 11.937 6.063 18 13.5 18a3.01 3.01 0 002.78-1.895l.636.316A.75.75 0 0018 15.75v-1.5a.75.75 0 00-1.084-.67l-.636.316A3.01 3.01 0 0013.5 12 7.501 7.501 0 016 4.5c0-1.271-.81-2.358-1.934-2.792l.334-.586A.75.75 0 003.75 0h-1.5zM3 3c.836 0 1.5.664 1.5 1.5 0 4.955 4.045 9 9 9 .834 0 1.497.66 1.5 1.494V15c0 .836-.664 1.5-1.5 1.5-6.624 0-12-5.376-12-12C1.5 3.664 2.164 3 3 3z"/></svg><svg viewBox="0 0 15 15" id="seafood"><path d="M7.924.375c-2.131 0-3.556.763-4.41 1.545-.856.782-1.177 1.619-1.177 1.619a.593.593 0 00-.028.104c-.131.13-1.943 1.973-1.943 4.45 0 2.152 1.051 3.832 2.493 4.915 1.442 1.084 3.26 1.617 4.938 1.617 2.483 0 3.967-.995 4.745-2.015.778-1.021.893-2.079.893-2.079a.594.594 0 00-.591-.656h-1.188a.594.594 0 00-.589.52s-.102.777-.568 1.549c-.466.772-1.202 1.494-2.702 1.494-.968 0-1.567-.598-2.006-1.418-.44-.819-.617-1.853-.617-2.21 0-.364.082-.788.215-1.213.296.384.671.81 1.172 1.167a.594.594 0 10.69-.965C6.55 8.297 6.14 7.64 5.966 7.34c.274-.432.59-.75.807-.91.356.609 1.107 1.69 2.268 2.207a.594.594 0 10.482-1.086c-.567-.252-1.055-.814-1.419-1.315.763-.098 1.355-.288 1.811-.566.672-.41 1.027-.977 1.295-1.433.267-.456.457-.794.804-1.04.348-.245.905-.447 2.014-.447a.594.594 0 100-1.187c-1.258 0-2.103.243-2.7.665-.598.423-.89.976-1.143 1.41-.255.435-.462.758-.887 1.016-.405.247-1.074.446-2.235.464h-.003c-.02 0-.04 0-.06.002h-.007c-.031 0-.054.005-.086.005a.594.594 0 00-.083.007c-.019.003-.035.008-.054.012a.594.594 0 00-.16-.019c-2.026 0-2.763-1.054-2.982-1.41.075-.165.16-.437.686-.919.664-.607 1.756-1.233 3.611-1.233h4.899a.594.594 0 100-1.188H7.924zm1.357 1.188a.594.594 0 100 1.187.594.594 0 000-1.187zM2.93 4.749a5.011 5.011 0 002.405 1.394 6.712 6.712 0 00-.497.747c-.022.039-.038.083-.06.123l-.01.016a.593.593 0 00-.05.105c-.428.82-.73 1.767-.73 2.676 0 .655.202 1.734.758 2.772.024.045.076.078.102.123-.438-.198-.896-.362-1.274-.645-1.202-.904-2.02-2.192-2.02-3.966 0-1.438.91-2.76 1.376-3.345z"/></svg><svg viewBox="0 0 30 30" id="star"><path d="M15 .042l-.98 2.324-3.37 8.002L.108 11.514l7.886 7.437-2.241 10.974L15 24.297l9.239 5.628-2.233-10.974 7.877-7.437-10.533-1.146L15 .042zm0 5.47l2.88 6.832 7.205.78-5.395 5.097 1.494 7.354L15 21.807l-6.192 3.768 1.502-7.354-5.387-5.097 7.197-.78L15 5.512z"/></svg><svg viewBox="0 0 27 27" id="stop"><path d="M13.5 0C6.06 0 0 6.06 0 13.5S6.06 27 13.5 27 27 20.94 27 13.5 20.94 0 13.5 0zm0 2.077c6.32 0 11.423 5.103 11.423 11.423 0 2.783-.998 5.33-2.645 7.31L6.19 4.722a11.393 11.393 0 017.31-2.645zM4.722 6.19L20.81 22.278a11.393 11.393 0 01-7.31 2.645A11.409 11.409 0 012.077 13.5c0-2.783.998-5.33 2.645-7.31z"/></svg><svg viewBox="0 0 20 21" id="tel"><path d="M14.586.605a3.806 3.806 0 00-1.904.568C10.912 2.247 9.606 3.126 6.078 6.8c-3.533 3.674-4.014 4.682-5.033 6.494a4.336 4.336 0 00.65 5.09l2.362 2.466 4.564-4.76-1.857-1.941c.1-.226.275-.58.521-.983.51-.83 1.29-1.892 2.192-2.826.896-.94 2.015-1.85 2.918-2.484.445-.317.85-.562 1.113-.702l.023-.012 1.834 1.923 4.57-4.755-.527-.556-1.84-1.91A4.014 4.014 0 0015.236.642a3.876 3.876 0 00-.65-.037zm.451 1.58c.545.08 1.067.337 1.47.764l1.307 1.36-2.449 2.546-1.072-1.123a.798.798 0 00-.61-.25c-.134 0-.228.024-.316.049-.181.055-.34.128-.527.22-.363.189-.797.463-1.29.805-.972.69-2.15 1.648-3.14 2.673a19.243 19.243 0 00-2.39 3.1 9.331 9.331 0 00-.645 1.228 2.33 2.33 0 00-.17.518c-.017.092-.03.196-.017.336.005.14.052.36.24.556L6.5 16.09l-2.443 2.545L2.75 17.28a2.729 2.729 0 01-.41-3.198c1.037-1.85 1.312-2.552 4.793-6.177 3.486-3.626 4.558-4.321 6.304-5.39.499-.299 1.061-.402 1.6-.33z"/></svg><svg viewBox="0 0 14 14" id="time"><path d="M6.969.063C3.163.063.062 3.163.062 6.968c0 3.806 3.1 6.906 6.907 6.906 3.806 0 6.906-3.1 6.906-6.906 0-3.806-3.1-6.907-6.906-6.907zm0 1.062a5.836 5.836 0 015.843 5.844 5.836 5.836 0 01-5.843 5.843A5.836 5.836 0 011.125 6.97a5.836 5.836 0 015.844-5.844zm-.532 1.063V7.5h3.188V6.437H7.5v-4.25H6.437z"/></svg><svg viewBox="0 0 18 19" id="vegetables"><path d="M17.227-.009a.75.75 0 00-.674.48c-.297.742-.968 1.625-1.55 2.573C13.57 1.615 11.437 2.062 10.5 1.5c0 .563-.563 3 2.438 3-1.126 1.125-.938 3-.938 3s1.782.095 3-1.125c-.104.798 1.125 1.125 3 1.125-.938-1.125 0-2.812-1.532-3.937l-.006-.003c.501-.77 1.108-1.59 1.485-2.532a.75.75 0 00-.72-1.037zM9.738 4.7c-.16.177-.318.355-.48.54-.686.78-1.396 1.587-2.104 2.115-.966.726-2.022 1.106-3.044 1.47C2.09 9.547 0 10.296 0 13.684a4.34 4.34 0 004.336 4.336c5.272 0 10.137-4.936 11.686-9.172-.529-.098-.97-.245-1.327-.446-.036.017-.07.025-.105.041-1.382 3.6-5.783 8.077-10.254 8.077A2.837 2.837 0 011.5 13.685c0-2.333 1.172-2.754 3.114-3.449 1.074-.385 2.294-.822 3.44-1.681.832-.624 1.592-1.49 2.329-2.33l.231-.257c.029-.152.052-.3.097-.46a3.226 3.226 0 01-.856-.656c-.045-.05-.076-.102-.117-.153zm-3.02 5.795a.75.75 0 00-.334.103c-.861.482-1.997.683-3.103 1.567a.75.75 0 00.938 1.172c.77-.616 1.766-.799 2.897-1.433a.75.75 0 00-.398-1.409z"/></svg><svg viewBox="0 0 21 20" id="web"><path d="M10.25.5C6.808.5 3.78 2.299 2.047 5H2v.08a9.673 9.673 0 00-1.5 5.17c0 1.9.555 3.67 1.5 5.17v.08h.047c1.735 2.701 4.76 4.5 8.203 4.5H11v-9h9v-.75c0-1.9-.555-3.67-1.5-5.17V5h-.047C16.72 2.299 13.693.5 10.25.5zM9.5 2.193V5H7.405c.56-1.42 1.317-2.41 2.095-2.807zm1.5 0c.778.396 1.535 1.386 2.095 2.807H11V2.193zm2.643.566A8.272 8.272 0 0116.578 5h-1.887a10.27 10.27 0 00-1.048-2.241zm-6.786.003A10.075 10.075 0 005.81 5H3.922a8.247 8.247 0 012.935-2.238zM2.908 6.5H5.39a17.145 17.145 0 00-.37 3H2.033a8.189 8.189 0 01.876-3zm4.037 0H9.5v3H6.532a15.26 15.26 0 01.413-3zM11 6.5h2.555c.222.899.365 1.906.413 3H11v-3zm4.11 0h2.482c.47.915.78 1.928.876 3h-2.989a17.436 17.436 0 00-.369-3zM2.032 11h2.989c.042 1.059.166 2.069.369 3H2.908a8.189 8.189 0 01-.876-3zm4.5 0H9.5v3H6.945a15.26 15.26 0 01-.413-3zm5.968 1.5l3 7.5 1.41-2.016L19.25 20l1.5-1.682-2.47-2.05L20 14.75l-7.5-2.25zm-8.578 3h1.887c.286.846.639 1.6 1.048 2.238A8.248 8.248 0 013.922 15.5zm3.483 0H9.5v2.807c-.778-.396-1.535-1.386-2.095-2.807z"/></svg></svg>