<svg width="19" height="19" viewBox="0 0 19 19" fill="none" xmlns="http://www.w3.org/2000/svg">
<path d="M10.5764 0.938296C10.1273 0.942219 9.97433 0.974902 9.84691 0.99396C9.83912 0.992861 9.8313 0.991884 9.82348 0.991031H9.81469C9.79228 0.989044 9.7698 0.988067 9.7473 0.988101H9.74438H9.74145H9.73852H9.72973C9.68544 0.989081 9.64132 0.993983 9.59789 1.00275C9.59496 1.00371 9.59203 1.00468 9.5891 1.00568C9.41304 1.04242 9.25604 1.14119 9.14672 1.284C5.09941 4.70171 4.58179 9.87033 4.53246 10.4774C3.99094 10.1662 3.39446 10.012 2.80981 10.0584C2.64273 10.0717 2.47721 10.0998 2.31469 10.1434C1.04875 10.483 0.060593 11.7325 0.00902388 13.4276C0.00204777 13.4721 -0.000893816 13.5172 0.000234814 13.5623C-0.000395841 13.6194 0.00550172 13.6765 0.0178129 13.7322C0.104881 16.5714 2.30847 18.8868 5.07738 18.9822C5.13413 18.9948 5.19213 19.0007 5.25024 18.9998C5.31029 19.0011 5.37029 18.9952 5.42895 18.9822C6.83749 18.9321 8.10128 18.3142 9.01488 17.3358C9.943 18.319 11.2146 18.9642 12.6448 18.994C12.6797 18.9984 12.715 19.0003 12.7502 18.9998C12.8103 19.0011 12.8703 18.9952 12.9289 18.9822C15.699 18.8836 17.9043 16.5626 17.9856 13.7205C17.9961 13.6685 18.001 13.6154 18.0002 13.5623C18.0013 13.5122 17.9974 13.4622 17.9885 13.4129C17.9315 11.7255 16.948 10.482 15.6858 10.1434C14.7357 9.88848 13.6803 10.1628 12.8704 10.8992C12.759 10.7577 12.3081 10.1624 11.7571 8.80451C11.3377 7.77098 10.9291 6.34161 10.6965 4.56818C11.9163 5.79178 13.9809 6.97601 17.1682 6.99689C17.1955 6.99936 17.2229 7.00034 17.2502 6.99982C17.2551 6.99987 17.26 6.99987 17.2649 6.99982C17.2854 6.99969 17.3059 6.99871 17.3264 6.99689C17.3381 6.99619 17.3499 6.99521 17.3616 6.99396C17.4294 6.9835 17.4954 6.96378 17.5579 6.93537C17.6601 6.89117 17.7512 6.82477 17.8245 6.74098C17.8979 6.65719 17.9516 6.55812 17.9819 6.45097C18.0122 6.34381 18.0183 6.23125 17.9997 6.12146C17.981 6.01167 17.9382 5.9074 17.8743 5.81623C16.6549 3.00176 14.5893 1.7207 12.8586 1.23712C11.9775 0.990932 11.1662 0.933145 10.5764 0.938296ZM10.9192 2.45587C11.3517 2.4721 11.8656 2.51989 12.4543 2.68439C13.6418 3.01618 14.971 3.73973 15.9846 5.42072C13.8506 5.17191 12.5417 4.31863 11.7161 3.47541C11.3483 3.09987 11.1059 2.75847 10.9192 2.45587ZM9.0852 3.44318C9.26638 5.97581 9.80162 7.97031 10.3684 9.36701C10.4793 9.64041 10.5893 9.85855 10.6995 10.0906C10.1016 10.0541 9.51103 10.2003 9.00023 10.5213C8.74715 10.3544 8.47525 10.221 8.18578 10.1434C7.48121 9.95434 6.72182 10.0712 6.04418 10.4363C6.14702 9.56989 6.67638 6.17826 9.0852 3.44318ZM10.8225 11.5408C11.2367 11.618 11.654 11.9021 11.9944 12.4549C12.0313 12.6228 12.1248 12.7729 12.2592 12.8801C12.3936 12.9873 12.5607 13.0451 12.7327 13.0438H12.7414C12.7542 13.0431 12.7669 13.0421 12.7795 13.0408C12.9436 13.0393 13.1026 12.9841 13.2323 12.8835C13.3619 12.783 13.455 12.6427 13.4973 12.4842C14.0126 11.6386 14.7092 11.4324 15.2991 11.5906C15.9207 11.7574 16.5002 12.3279 16.5002 13.5623C16.5002 15.7623 14.8136 17.4998 12.7502 17.4998C11.5918 17.4998 10.5689 16.9475 9.87621 16.076C10.262 15.3189 10.5002 14.4712 10.5002 13.5623C10.5002 12.8413 10.3231 12.2033 10.0344 11.6697C10.2845 11.5567 10.5478 11.4897 10.8225 11.5408ZM3.18481 11.5438C3.6448 11.5761 4.11889 11.8581 4.49731 12.4725L4.50024 12.4783C4.54152 12.6409 4.6361 12.7849 4.76887 12.8874C4.90164 12.9899 5.06493 13.045 5.23266 13.0438H5.24145C5.25416 13.0431 5.26686 13.0421 5.27953 13.0408C5.44358 13.0393 5.60261 12.9841 5.73226 12.8835C5.8619 12.783 5.955 12.6427 5.99731 12.4842C6.51263 11.6386 7.20918 11.4324 7.79906 11.5906C8.42072 11.7574 9.00023 12.3279 9.00023 13.5623C9.00023 15.7623 7.31359 17.4998 5.25024 17.4998C3.18688 17.4998 1.50023 15.7623 1.50023 13.5623C1.50023 12.3279 2.07975 11.7574 2.70141 11.5906C2.85682 11.5489 3.0192 11.5321 3.18481 11.5438Z" fill="white"/>
</svg>
