<svg width="20" height="20" viewBox="0 0 20 20" fill="none" xmlns="http://www.w3.org/2000/svg">
<path d="M13.25 0.00292969C11.5209 0.00292969 9.79237 0.662705 8.47754 1.97754C7.14149 3.31359 6.31933 5.30986 5.7793 7.19824C5.23926 9.08662 5 10.8334 5 11.8125V11.8184L3.19824 13.6201C3.04405 13.5811 2.9257 13.5 2.75 13.5C1.5162 13.5 0.5 14.5162 0.5 15.75C0.5 16.778 1.27075 17.5163 2.21973 17.7803C2.4837 18.7292 3.22202 19.5 4.25 19.5C5.4838 19.5 6.5 18.4838 6.5 17.25C6.5 17.0743 6.41892 16.9559 6.37988 16.8018L8.18164 15H8.1875C9.01775 15 10.7246 14.7622 12.6553 14.2236C14.5859 13.685 16.6724 12.8734 18.0225 11.5225C20.6517 8.8915 20.652 4.60709 18.0225 1.97754C16.7076 0.662705 14.9791 0.00292969 13.25 0.00292969ZM13.25 1.49414C14.5921 1.49414 15.9337 2.00992 16.9619 3.03809C19.0184 5.09453 19.0186 8.40388 16.9619 10.4619C15.969 11.4554 14.0587 12.2721 12.251 12.7764C10.5606 13.2479 9.05397 13.4264 8.45117 13.4531L6.54688 11.5488C6.57282 10.7677 6.74981 9.25794 7.2207 7.61133C7.72317 5.85433 8.53114 4.04503 9.53809 3.03809C10.5663 2.00992 11.9079 1.49414 13.25 1.49414ZM5.9082 13.0312L6.96875 14.0918L4.63965 16.4209L4.89746 16.9102C4.97218 17.0515 5 17.1503 5 17.25C5 17.6722 4.6722 18 4.25 18C3.8278 18 3.5 17.6722 3.5 17.25V16.5H2.75C2.3278 16.5 2 16.1722 2 15.75C2 15.3278 2.3278 15 2.75 15C2.84965 15 2.94849 15.0278 3.08984 15.1025L3.5791 15.3604L5.9082 13.0312Z" fill="white"/>
</svg>
