<svg width="329" height="13" viewBox="0 0 329 13" fill="none" xmlns="http://www.w3.org/2000/svg">
<path d="M119.076 0.994141L119.308 0.0213439L119.194 -0.00585938H119.076V0.994141ZM144.716 7.09999L144.484 8.07278L144.599 8.09999H144.716V7.09999ZM317.667 7.09999C317.667 10.0455 320.054 12.4333 323 12.4333C325.946 12.4333 328.333 10.0455 328.333 7.09999C328.333 4.15447 325.946 1.76665 323 1.76665C320.054 1.76665 317.667 4.15447 317.667 7.09999ZM0 1.99414H119.076V-0.00585938H0V1.99414ZM118.845 1.96694L144.484 8.07278L144.948 6.12719L119.308 0.0213439L118.845 1.96694ZM144.716 8.09999H323V6.09999H144.716V8.09999Z" fill="url(#paint0_linear_212_11061)"/>
<defs>
<linearGradient id="paint0_linear_212_11061" x1="0" y1="7.10006" x2="323" y2="7.10006" gradientUnits="userSpaceOnUse">
<stop stop-color="#1DBBF4"/>
<stop offset="1" stop-color="#1E73C9"/>
</linearGradient>
</defs>
</svg>
