<svg width="146" height="31" viewBox="0 0 146 31" fill="none" xmlns="http://www.w3.org/2000/svg">
<path d="M52.4003 1L52.861 0.805639L52.732 0.5H52.4003V1ZM63.7916 28L63.331 28.1944L63.4599 28.5H63.7916V28ZM140.333 28C140.333 29.4728 141.527 30.6667 143 30.6667C144.473 30.6667 145.667 29.4728 145.667 28C145.667 26.5272 144.473 25.3333 143 25.3333C141.527 25.3333 140.333 26.5272 140.333 28ZM0 1.5H52.4003V0.5H0V1.5ZM51.9396 1.19436L63.331 28.1944L64.2523 27.8056L52.861 0.805639L51.9396 1.19436ZM63.7916 28.5H143V27.5H63.7916V28.5Z" fill="url(#paint0_linear_498_66)"/>
<defs>
<linearGradient id="paint0_linear_498_66" x1="-0.503089" y1="27.9993" x2="143" y2="27.9993" gradientUnits="userSpaceOnUse">
<stop stop-color="#1DBBF4"/>
<stop offset="1" stop-color="#1E73C9"/>
</linearGradient>
</defs>
</svg>
