<svg width="15" height="14" viewBox="0 0 15 14" fill="none" xmlns="http://www.w3.org/2000/svg">
<path d="M3.9375 0.375C3.14583 0.375 2.37256 0.716795 1.74341 1.03137C1.11425 1.34595 0.639404 1.66223 0.639404 1.66223C0.558077 1.71645 0.491393 1.78991 0.445269 1.87609C0.399145 1.96227 0.375008 2.0585 0.375 2.15625V5.71875C0.375023 5.82621 0.404205 5.93165 0.459436 6.02382C0.514666 6.116 0.593875 6.19147 0.688619 6.24217C0.783362 6.29288 0.890089 6.31692 0.997423 6.31174C1.10476 6.30656 1.20867 6.27236 1.2981 6.21277C1.2981 6.21277 1.71407 5.93527 2.27222 5.65613C2.83037 5.37698 3.54088 5.125 3.9375 5.125C4.33333 5.125 4.8606 5.35925 5.45435 5.65613C6.0481 5.953 6.70833 6.3125 7.5 6.3125C8.29167 6.3125 8.95404 5.95302 9.54797 5.65613C10.1419 5.35924 10.6675 5.125 11.0625 5.125C11.4583 5.125 12.1694 5.37696 12.7278 5.65613C13.2861 5.9353 13.7019 6.21277 13.7019 6.21277C13.7913 6.27236 13.8952 6.30656 14.0026 6.31174C14.1099 6.31692 14.2166 6.29288 14.3114 6.24217C14.4061 6.19147 14.4853 6.116 14.5406 6.02382C14.5958 5.93165 14.625 5.82621 14.625 5.71875V2.15625C14.625 2.0585 14.6009 1.96227 14.5547 1.87609C14.5086 1.78991 14.4419 1.71645 14.3606 1.66223C14.3606 1.66223 13.8857 1.34595 13.2566 1.03137C12.6274 0.716795 11.8542 0.375 11.0625 0.375C10.2708 0.375 9.6106 0.734497 9.01685 1.03137C8.4231 1.32825 7.89583 1.5625 7.5 1.5625C7.10417 1.5625 6.5769 1.32825 5.98315 1.03137C5.3894 0.734497 4.72917 0.375 3.9375 0.375ZM3.9375 1.5625C4.33333 1.5625 4.8606 1.79675 5.45435 2.09363C6.0481 2.3905 6.70833 2.75 7.5 2.75C8.29167 2.75 8.9519 2.3905 9.54565 2.09363C10.1394 1.79675 10.6667 1.5625 11.0625 1.5625C11.4583 1.5625 12.1694 1.81446 12.7278 2.09363C13.1347 2.29707 13.2874 2.40458 13.4375 2.49951V4.69824C13.344 4.64789 13.3599 4.64554 13.2566 4.59387C12.6274 4.2793 11.8542 3.9375 11.0625 3.9375C10.2712 3.9375 9.61071 4.29701 9.01685 4.59387C8.42298 4.89073 7.89583 5.125 7.5 5.125C7.10417 5.125 6.5769 4.89075 5.98315 4.59387C5.3894 4.297 4.72917 3.9375 3.9375 3.9375C3.14544 3.9375 2.37014 4.27927 1.74109 4.59387C1.63917 4.64485 1.6549 4.64622 1.5625 4.69592V2.49951C1.71256 2.40458 1.86534 2.29707 2.27222 2.09363C2.83056 1.81446 3.54167 1.5625 3.9375 1.5625ZM3.9375 7.5C3.14583 7.5 2.37256 7.84179 1.74341 8.15637C1.11425 8.47095 0.639404 8.78723 0.639404 8.78723C0.558077 8.84145 0.491393 8.91491 0.445269 9.00109C0.399145 9.08727 0.375008 9.1835 0.375 9.28125V12.8438C0.375023 12.9512 0.404205 13.0566 0.459436 13.1488C0.514666 13.241 0.593875 13.3165 0.688619 13.3672C0.783362 13.4179 0.890089 13.4419 0.997423 13.4367C1.10476 13.4316 1.20867 13.3974 1.2981 13.3378C1.2981 13.3378 1.71407 13.0603 2.27222 12.7811C2.83037 12.502 3.54088 12.25 3.9375 12.25C4.33333 12.25 4.8606 12.4843 5.45435 12.7811C6.0481 13.078 6.70833 13.4375 7.5 13.4375C8.29167 13.4375 8.95404 13.078 9.54797 12.7811C10.1419 12.4842 10.6675 12.25 11.0625 12.25C11.4583 12.25 12.1694 12.502 12.7278 12.7811C13.2861 13.0603 13.7019 13.3378 13.7019 13.3378C13.7913 13.3974 13.8952 13.4316 14.0026 13.4367C14.1099 13.4419 14.2166 13.4179 14.3114 13.3672C14.4061 13.3165 14.4853 13.241 14.5406 13.1488C14.5958 13.0566 14.625 12.9512 14.625 12.8438V9.28125C14.625 9.1835 14.6009 9.08727 14.5547 9.00109C14.5086 8.91491 14.4419 8.84145 14.3606 8.78723C14.3606 8.78723 13.8857 8.47095 13.2566 8.15637C12.6274 7.84179 11.8542 7.5 11.0625 7.5C10.2708 7.5 9.6106 7.8595 9.01685 8.15637C8.4231 8.45325 7.89583 8.6875 7.5 8.6875C7.10417 8.6875 6.5769 8.45325 5.98315 8.15637C5.3894 7.8595 4.72917 7.5 3.9375 7.5ZM3.9375 8.6875C4.33333 8.6875 4.8606 8.92175 5.45435 9.21863C6.0481 9.5155 6.70833 9.875 7.5 9.875C8.29167 9.875 8.9519 9.5155 9.54565 9.21863C10.1394 8.92175 10.6667 8.6875 11.0625 8.6875C11.4583 8.6875 12.1694 8.93946 12.7278 9.21863C13.1347 9.42207 13.2874 9.52958 13.4375 9.62451V11.8232C13.344 11.7729 13.3599 11.7705 13.2566 11.7189C12.6274 11.4043 11.8542 11.0625 11.0625 11.0625C10.2712 11.0625 9.61071 11.422 9.01685 11.7189C8.42298 12.0157 7.89583 12.25 7.5 12.25C7.10417 12.25 6.5769 12.0157 5.98315 11.7189C5.3894 11.422 4.72917 11.0625 3.9375 11.0625C3.14544 11.0625 2.37014 11.4043 1.74109 11.7189C1.63917 11.7698 1.6549 11.7712 1.5625 11.8209V9.62451C1.71256 9.52958 1.86534 9.42207 2.27222 9.21863C2.83056 8.93946 3.54167 8.6875 3.9375 8.6875Z" fill="#ffffff"/>
</svg>
