<svg width="16" height="16" viewBox="0 0 16 16" fill="none" xmlns="http://www.w3.org/2000/svg">
<path d="M7.3125 0.1875V1.05493C7.3125 1.17554 7.29395 1.19873 7.21973 1.28223C7.15015 1.37036 7.00171 1.47705 6.80225 1.60693C6.51001 1.79712 6.16211 2.20996 5.87451 2.63672C4.76123 2.69238 3.86133 2.93359 3.3186 3.41602C2.81763 3.86133 2.59033 4.44116 2.57178 4.98389C1.9502 5.0813 1.40283 5.33179 0.99463 5.74463C0.456544 6.27808 0.1875 7.04346 0.1875 7.90625C0.1875 8.92212 0.702393 9.88233 1.56519 10.6152L2.36768 14.2334C2.54858 15.0405 3.27686 15.625 4.11182 15.625H11.7053C12.5356 15.625 13.2639 15.0405 13.4402 14.2334L14.2195 10.7358C14.3865 10.6199 15.625 9.70142 15.625 7.90625C15.625 6.42188 14.7529 5.31787 13.686 4.66846C12.7676 4.11182 11.7192 3.94946 10.7637 3.87988C10.4482 1.49561 8.11963 0.50293 8.11963 0.50293L7.3125 0.1875ZM8.17529 1.91309C8.73193 2.20996 9.6875 2.84546 9.6875 4.34375V4.9375H10.2812C11.1348 4.9375 12.2434 5.18335 13.0691 5.68897C13.8948 6.18994 14.4375 6.86719 14.4375 7.90625C14.4375 8.50928 14.2473 8.92676 14.0479 9.22827C13.8623 9.02417 13.6443 8.85718 13.3984 8.74121C12.8511 8.46753 12.146 8.38867 11.5012 8.71338C10.5874 9.16797 10.1143 9.75244 9.47412 10.1514C8.83862 10.5503 7.97583 10.875 6.125 10.875C4.5293 10.875 3.3186 10.4668 2.53003 9.8916C1.74146 9.31641 1.375 8.60669 1.375 7.90625C1.375 7.28467 1.55127 6.86255 1.82959 6.57959C2.06152 6.35229 2.39087 6.19922 2.84082 6.14819C3.11914 6.70019 3.58765 7.20581 4.25098 7.58618C5.24365 8.15674 6.64453 8.5 8.5 8.5V7.3125C6.79297 7.3125 5.59619 6.98779 4.84473 6.5564C4.09326 6.125 3.79639 5.61939 3.74536 5.16943C3.71753 4.90039 3.78711 4.58496 4.10718 4.302C4.42725 4.01904 5.03491 3.75 6.125 3.75H6.57031L6.69556 3.3186C6.77441 3.04956 7.02954 2.87793 7.45166 2.59961C7.6604 2.46509 7.90161 2.31201 8.11963 2.06616C8.1521 2.02905 8.14282 1.95483 8.17529 1.91309ZM12.4475 9.69214C12.5959 9.69678 12.7444 9.73853 12.8789 9.80347C13.0088 9.86841 13.1016 9.9519 13.1572 10.0215L12.2852 13.9736C12.2202 14.2473 11.9836 14.4375 11.7053 14.4375H4.11182C3.82886 14.4375 3.59229 14.2473 3.52734 13.9736L2.9707 11.4688C3.47632 11.6775 4.03296 11.8398 4.6499 11.9373L4.94678 13.25H6.16211L5.89307 12.0439C5.97192 12.0486 6.0415 12.0625 6.125 12.0625C6.56567 12.0625 6.95068 12.0393 7.3125 12.0022V13.25H8.5V11.812C9.16797 11.6497 9.6875 11.4224 10.105 11.158C10.1143 11.1533 10.1189 11.1487 10.1282 11.144L9.65039 13.25H10.8657L11.594 10.04C11.7332 9.94263 11.8723 9.84985 12.03 9.771C12.1553 9.71069 12.2991 9.6875 12.4475 9.69214Z" fill="#ffffff"/>
</svg>
