<svg width="19" height="18" viewBox="0 0 19 18" fill="none" xmlns="http://www.w3.org/2000/svg">
<path d="M15.7178 -0.00889077C15.5707 -0.00190029 15.4289 0.0482191 15.3102 0.135221C15.1914 0.222222 15.1008 0.342258 15.0498 0.480367L11.7861 8.9999H3C3 8.1637 3.6638 7.4999 4.5 7.4999C4.67153 7.4999 4.83349 7.5405 4.99219 7.59951C5.12688 7.71827 5.29971 7.78477 5.47927 7.78692C5.65883 7.78907 5.8332 7.72673 5.9707 7.61123C6.05945 7.54604 6.13276 7.46211 6.18541 7.3654C6.23807 7.26869 6.26879 7.16157 6.27539 7.05166C6.46816 6.44521 7.0118 5.9999 7.6875 5.9999C8.0525 5.9999 8.37394 6.14 8.63965 6.36318C8.77597 6.50423 8.96212 6.58626 9.1582 6.59169C9.15918 6.5917 9.16016 6.5917 9.16113 6.59169C9.21111 6.59375 9.26116 6.59081 9.31055 6.58291C9.47233 6.55798 9.62152 6.48081 9.73535 6.36318C10.0011 6.14 10.3225 5.9999 10.6875 5.9999C10.9005 5.9999 11.0934 6.06224 11.2734 6.15224L11.8066 4.75771C11.521 4.63461 11.216 4.55595 10.8955 4.52627C10.8277 4.50778 10.7577 4.49891 10.6875 4.4999C10.1379 4.4999 9.62732 4.66045 9.1875 4.91884C8.74768 4.66045 8.23712 4.4999 7.6875 4.4999C6.55687 4.4999 5.57792 5.13802 5.06836 6.07021C4.88443 6.0325 4.69725 5.9999 4.5 5.9999C2.8522 5.9999 1.5 7.3521 1.5 8.9999H0V9.7499C0 16.7594 6.5565 17.9774 6.75 17.9999L11.3965 17.9882C11.4625 17.9762 18.0205 16.7594 18.0205 9.7499V8.9999H16.5C16.5 7.68754 15.6565 6.56552 14.4785 6.16689L16.4502 1.01943C16.497 0.902764 16.5137 0.776214 16.4988 0.651408C16.4839 0.526601 16.4379 0.40754 16.3649 0.305161C16.292 0.202782 16.1945 0.12037 16.0815 0.0654944C15.9684 0.0106191 15.8433 -0.0149593 15.7178 -0.00889077ZM13.9365 7.58779C14.5469 7.77792 15 8.32812 15 8.9999H13.3945L13.9365 7.58779ZM1.53223 10.4999H16.4883C16.0623 15.5684 11.356 16.4729 11.2705 16.4999L6.88184 16.5116C6.67334 16.4726 1.95823 15.5684 1.53223 10.4999Z" fill="#ffffff"/>
</svg>
