<svg width="12" height="21" viewBox="0 0 12 21" fill="none" xmlns="http://www.w3.org/2000/svg">
<path d="M12 9C12 7.11914 10.7988 5.05664 9 4.59375V0.75C9 0.333984 8.66602 0 8.25 0H3.75C3.33398 0 3 0.333984 3 0.75V4.59375C1.20117 5.05664 0 7.11914 0 9V9.75C0 10.3242 0.216796 10.8516 0.574219 11.25C0.216796 11.6484 0 12.1758 0 12.75V14.25C0 14.8242 0.216796 15.3516 0.574219 15.75C0.216796 16.1484 0 16.6758 0 17.25V18.75C0 19.9922 1.00781 21 2.25 21H9.75C10.9922 21 12 19.9922 12 18.75V17.25C12 16.6758 11.7832 16.1484 11.4258 15.75C11.7832 15.3516 12 14.8242 12 14.25V12.75C12 12.1758 11.7832 11.6484 11.4258 11.25C11.7832 10.8516 12 10.3242 12 9.75V9ZM4.5 1.5H7.5V3H4.5V1.5ZM10.5 9.75C10.5 10.166 10.1602 10.5 9.75 10.5H5.25C4.83398 10.5 4.5 10.834 4.5 11.25C4.5 11.666 4.83398 12 5.25 12H9.75C10.1602 12 10.5 12.334 10.5 12.75V14.25C10.5 14.6602 10.1602 15 9.75 15H5.25C4.83398 15 4.5 15.334 4.5 15.75C4.5 16.166 4.83398 16.5 5.25 16.5H9.75C10.1602 16.5 10.5 16.8398 10.5 17.25V18.75C10.5 19.1602 10.1602 19.5 9.75 19.5H2.25C1.83398 19.5 1.5 19.1602 1.5 18.75V17.25C1.5 16.8398 1.83398 16.5 2.25 16.5C2.66602 16.5 3 16.166 3 15.75C3 15.334 2.66602 15 2.25 15C1.83398 15 1.5 14.6602 1.5 14.25V12.75C1.5 12.334 1.83398 12 2.25 12C2.66602 12 3 11.666 3 11.25C3 10.834 2.66602 10.5 2.25 10.5C1.83398 10.5 1.5 10.166 1.5 9.75V9C1.5 7.45898 2.5957 6 3.75 6C4.16602 6 4.5 5.66602 4.5 5.25V4.5H7.5V5.25C7.5 5.66602 7.83398 6 8.25 6C9.4043 6 10.5 7.45898 10.5 9V9.75Z" fill="#ffffff"/>
</svg>
