<svg width="17" height="16" viewBox="0 0 17 16" fill="none" xmlns="http://www.w3.org/2000/svg">
<path d="M5.53125 0.1875C5.41148 0.189317 5.29505 0.227317 5.19727 0.296509L5.19495 0.298828C3.79839 0.44804 2.57352 1.35655 1.70898 2.65527C0.770708 4.06477 0.1875 5.87218 0.1875 7.64417C0.1875 10.7975 2.34457 12.744 4.61511 13.1526C5.52971 14.5679 7.14536 15.625 9.35583 15.625C11.1278 15.625 12.9352 15.0418 14.3447 14.1035C15.6389 13.242 16.5419 12.0217 16.6965 10.6315C16.7714 10.53 16.812 10.4073 16.8125 10.2812C16.8125 8.7304 15.7542 7.39726 14.3447 6.45898C13.2261 5.71434 11.8561 5.20896 10.4529 5.02563C10.0784 3.80794 9.48128 2.67657 8.69946 1.8064C7.8422 0.852251 6.74903 0.1875 5.53125 0.1875ZM5.53125 1.375C6.31084 1.375 7.11001 1.81407 7.8158 2.59961C8.37242 3.21914 8.84653 4.0458 9.17957 4.94678C5.71461 5.03783 3.75 7.7451 3.75 10.2812C3.75 10.7732 3.847 11.2668 3.99121 11.7517C2.5672 11.1914 1.375 9.85019 1.375 7.64417C1.375 6.13865 1.8962 4.51697 2.69702 3.31396C3.49784 2.11096 4.53848 1.375 5.53125 1.375ZM9.35583 6.125C10.8614 6.125 12.483 6.6462 13.686 7.44702C14.889 8.24784 15.625 9.28848 15.625 10.2812C15.625 11.274 14.889 12.3147 13.686 13.1155C12.483 13.9163 10.8614 14.4375 9.35583 14.4375C6.37549 14.4375 4.9375 12.2591 4.9375 10.2812C4.9375 8.30339 6.37549 6.125 9.35583 6.125Z" fill="#ffffff"/>
</svg>
