<svg width="22" height="17" viewBox="0 0 22 17"  fill="none" xmlns="http://www.w3.org/2000/svg">
<path d="M7.24993 0.500006C7.08543 0.49936 6.92527 0.55281 6.79413 0.652126C6.66299 0.751442 6.56814 0.891115 6.52418 1.04964C6.48022 1.20816 6.48959 1.37673 6.55086 1.5294C6.61212 1.68207 6.72187 1.81037 6.86321 1.89454C7.23108 2.11526 7.46094 2.33789 7.66008 2.8086C7.8302 3.21069 7.93708 3.87442 7.97063 4.76563C6.93731 5.3349 6.19647 5.94606 5.84661 6.25391C5.60252 5.95233 5.45768 5.72137 4.86516 5.19044C3.96448 4.38337 2.72745 3.50001 1.24993 3.50001C1.12228 3.50013 0.996779 3.53284 0.885302 3.59502C0.773824 3.65719 0.680059 3.74679 0.612882 3.85533C0.545705 3.96387 0.507339 4.08776 0.501415 4.21527C0.495491 4.34278 0.522205 4.46969 0.579029 4.58399C1.04347 5.51288 1.99993 6.75001 1.99993 8.75001C1.99993 9.14672 1.79184 10.0808 1.50188 10.9209C1.21192 11.761 0.804639 12.5918 0.649341 12.7988C0.565433 12.9103 0.514278 13.043 0.501626 13.1819C0.488974 13.3209 0.515327 13.4606 0.577723 13.5854C0.640119 13.7102 0.736084 13.8151 0.854833 13.8883C0.973581 13.9616 1.11041 14.0003 1.24993 14C4.01024 14 5.3282 12.1902 5.88762 11.2988C6.42072 11.7855 7.65091 12.8169 9.4384 13.4551C9.36501 13.7692 9.15329 14.3047 8.86125 14.7793C8.51325 15.3448 8.16399 15.7813 8.16399 15.7813C8.07568 15.8916 8.02035 16.0246 8.00436 16.1651C7.98836 16.3055 8.01237 16.4476 8.07361 16.5749C8.13484 16.7023 8.23082 16.8098 8.35047 16.885C8.47013 16.9602 8.6086 17.0001 8.74993 17H11.5624C11.6998 17.0002 11.8346 16.9627 11.9521 16.8916C11.8842 16.9329 12.1218 16.8052 12.3622 16.666C12.6026 16.5269 12.9152 16.3305 13.2529 16.0654C13.9031 15.555 14.6519 14.7791 15.1806 13.6807C17.7985 13.0493 19.9198 11.5566 21.0429 9.89844H21.0458C21.1949 9.67752 21.3972 9.39412 21.4736 8.97559C21.5499 8.55707 21.4448 8.08292 21.1952 7.63379C21.1719 7.59119 21.1444 7.55096 21.1132 7.51368C20.3822 6.64549 19.0435 5.27816 17.0029 4.38477C16.9982 4.34515 16.9903 4.30596 16.9794 4.26758C16.9794 4.26758 16.4867 1.53428 14.3046 0.564459C14.2087 0.521895 14.1049 0.499937 13.9999 0.500006H7.24993ZM8.84954 2.00001H13.7509C14.4306 2.34605 14.9012 3.17073 15.1923 3.80762C14.4247 3.62822 13.6052 3.50001 12.6874 3.50001C11.4652 3.50001 10.3769 3.75431 9.42961 4.10352C9.36572 3.37518 9.25737 2.7296 9.0429 2.22266C8.99935 2.11973 8.9004 2.09465 8.84954 2.00001ZM12.6874 5.00001C16.6724 5.00001 18.8482 7.1794 19.9091 8.43067C19.9748 8.57292 20.0028 8.67444 19.997 8.70606C19.9898 8.74553 19.9391 8.85215 19.8007 9.05762C18.6742 10.7209 15.8039 12.5 12.4999 12.5C9.14993 12.5 6.2802 9.71973 6.2802 9.71973C6.19627 9.63565 6.09357 9.57271 5.98055 9.5361C5.86754 9.49948 5.74744 9.49023 5.63015 9.50911C5.51286 9.52799 5.40173 9.57446 5.30591 9.6447C5.2101 9.71493 5.13233 9.80692 5.07903 9.91309C5.07903 9.91309 4.18134 11.5164 2.56243 12.1777C2.67626 11.8975 2.81288 11.7201 2.91985 11.4102C3.23927 10.4847 3.49993 9.54129 3.49993 8.75001C3.49993 7.57824 3.19264 6.60708 2.86126 5.80567C3.20459 6.01837 3.5665 6.04371 3.86321 6.30958C4.63653 7.00251 5.14348 7.69239 5.14348 7.69239C5.20631 7.77808 5.28662 7.84944 5.37911 7.90175C5.47159 7.95406 5.57414 7.98613 5.67995 7.99582C5.78576 8.00552 5.89242 7.99262 5.99287 7.95799C6.09332 7.92335 6.18527 7.86777 6.26262 7.79493C6.26262 7.79493 9.33743 5.00001 12.6874 5.00001ZM16.2499 6.50001C16.051 6.50001 15.8602 6.57902 15.7196 6.71968C15.5789 6.86033 15.4999 7.05109 15.4999 7.25001C15.4999 7.44892 15.5789 7.63968 15.7196 7.78034C15.8602 7.92099 16.051 8.00001 16.2499 8.00001C16.4488 8.00001 16.6396 7.92099 16.7803 7.78034C16.9209 7.63968 16.9999 7.44892 16.9999 7.25001C16.9999 7.05109 16.9209 6.86033 16.7803 6.71968C16.6396 6.57902 16.4488 6.50001 16.2499 6.50001ZM10.9267 13.8477C11.4245 13.9359 11.9412 14 12.4999 14C12.7552 14 13.0002 13.9697 13.2499 13.9531C12.9496 14.3346 12.6284 14.6489 12.3241 14.8877C12.0548 15.0991 11.8072 15.2553 11.6122 15.3682C11.5055 15.4299 11.4415 15.464 11.372 15.5H10.162C10.4622 15.0109 10.7871 14.4654 10.9267 13.8477Z" fill="white"/>
</svg>
