<svg width="24" height="24" viewBox="0 0 24 24" fill="none" xmlns="http://www.w3.org/2000/svg">
<path d="M20.2663 3.00027C20.081 3.00543 19.9049 3.08245 19.7753 3.21505L18.138 4.8524V3.71992C18.138 3.62424 18.1188 3.52953 18.0816 3.44141C18.0443 3.3533 17.9897 3.27357 17.921 3.20696C17.8523 3.14035 17.7709 3.08823 17.6817 3.05368C17.5925 3.01913 17.4972 3.00287 17.4016 3.00585C17.2983 3.00906 17.1969 3.03466 17.1044 3.0809C17.0119 3.12713 16.9306 3.19289 16.866 3.27363C16.866 3.27363 16.1861 4.13565 15.7168 5.5079C15.3291 4.63928 14.9214 3.76688 14.3696 3.21505C14.3019 3.1474 14.2214 3.09402 14.1328 3.05808C14.0441 3.02215 13.9492 3.00438 13.8535 3.00585C13.668 3.00881 13.491 3.08383 13.3598 3.21505C12.9746 3.60028 12.8519 4.04911 12.7322 4.53999C12.6125 5.03087 12.5389 5.56819 12.4895 6.07692C12.4265 6.72625 12.4361 6.95384 12.4282 7.30703C9.77403 7.38382 6.75498 8.07001 4.0824 10.71C4.08053 10.7119 4.07867 10.7137 4.07682 10.7156C2.05224 12.7632 1.09203 14.6745 1.00573 16.4505C0.979758 16.9851 1.0435 17.4947 1.16752 17.9847C1.16469 18.1202 1.20049 18.2537 1.27072 18.3696C1.59804 19.3527 2.19991 20.2346 2.9555 20.9916C3.71094 21.749 4.58946 22.3425 5.56634 22.6847C5.68075 22.7719 5.81881 22.8224 5.96243 22.8298C6.37359 22.9372 6.80066 23.0026 7.24832 22.9999C9.05921 22.99 11.0315 22.0161 13.2176 19.8256C15.8649 17.1745 16.5763 13.8362 16.6875 11.5468C17.0409 11.543 17.2666 11.555 17.9148 11.4994C18.4239 11.4558 18.9627 11.3888 19.4546 11.2735C19.9465 11.1582 20.3974 11.0392 20.7851 10.6515C20.919 10.5175 20.9942 10.3359 20.9942 10.1466C20.9942 9.95724 20.919 9.77564 20.7851 9.64172C20.4731 9.32968 20.0803 9.10121 19.6164 8.84954C19.2804 8.66731 18.9079 8.49534 18.5424 8.32514C19.9813 7.84113 20.7851 7.08109 20.7851 7.08109C20.8849 6.98121 20.9529 6.85399 20.9804 6.7155C21.0079 6.57701 20.9938 6.43346 20.9397 6.30301C20.8857 6.17256 20.7942 6.06105 20.6768 5.98258C20.5594 5.90411 20.4214 5.8622 20.2802 5.86214H19.1477L20.7851 4.22479C20.8878 4.12441 20.9578 3.9954 20.9861 3.8546C21.0143 3.7138 20.9994 3.56777 20.9434 3.43554C20.8874 3.30332 20.7928 3.19106 20.672 3.11341C20.5512 3.03576 20.4098 2.99633 20.2663 3.00027ZM14.0321 5.44932C14.2446 5.84151 14.3973 6.03379 14.5871 6.46185C14.9969 7.3858 15.2952 8.1755 15.3096 8.21357C15.3096 8.2145 15.3096 8.21543 15.3096 8.21636C15.345 8.33499 15.4107 8.44237 15.5002 8.52795C15.5897 8.61352 15.6999 8.67436 15.82 8.70449C15.8916 8.73233 16.6376 9.02163 17.5466 9.42972C17.9163 9.59569 18.2795 9.77665 18.6261 9.95412C18.3497 9.9982 18.0838 10.0518 17.7921 10.0769C16.9013 10.1532 16.1623 10.1445 16.0878 10.1438C15.9785 10.13 15.8675 10.1418 15.7634 10.1781C15.6594 10.2144 15.5651 10.2742 15.4881 10.353C15.4584 10.3822 15.4314 10.4139 15.4072 10.4478C15.4034 10.4524 15.3997 10.4571 15.396 10.4618C15.3942 10.4655 15.3923 10.4692 15.3905 10.4729C15.3773 10.4937 15.3652 10.5151 15.3542 10.5371C15.3439 10.558 15.3346 10.5794 15.3263 10.6013C15.319 10.6196 15.3125 10.6382 15.3068 10.657C15.3058 10.6617 15.3049 10.6663 15.304 10.671C15.2899 10.722 15.2815 10.7744 15.2789 10.8272C15.2606 9.68321 14.3267 8.74851 13.1841 8.72402C13.3606 8.7046 13.5235 8.62012 13.6411 8.48706C13.7587 8.35401 13.8225 8.18192 13.8201 8.00437C13.8201 8.00437 13.8213 7.15156 13.9121 6.21639C13.9381 5.9485 13.9903 5.70654 14.0321 5.44932ZM16.9218 7.08388C16.9327 7.09446 16.9438 7.10469 16.9553 7.11456C16.9394 7.11688 16.9295 7.12072 16.9135 7.12293C16.9159 7.10876 16.9193 7.09797 16.9218 7.08388ZM7.12001 10.1466H7.42684C7.82882 10.1466 8.14092 10.4587 8.14092 10.8607V11.5747H7.60536C7.56243 11.5737 7.51948 11.5765 7.47705 11.5831C7.4596 11.5826 7.44442 11.5747 7.42684 11.5747H5.25672C5.86876 10.9936 6.49042 10.5206 7.12001 10.1466ZM9.43518 10.1466H10.2831C10.6851 10.1466 10.9972 10.4587 10.9972 10.8607V11.5747H10.4617C10.4252 11.5747 10.3889 11.5775 10.3529 11.5831C10.3292 11.5823 10.307 11.5747 10.2831 11.5747H9.56907V10.8607C9.56907 10.6098 9.51604 10.3712 9.43518 10.1466ZM12.2915 10.1466H13.1395C13.5414 10.1466 13.8535 10.4587 13.8535 10.8607V11.7086C13.629 11.6278 13.3903 11.5747 13.1395 11.5747H12.4254V10.8607C12.4254 10.6098 12.3723 10.3712 12.2915 10.1466ZM3.97919 13.0029H4.57054C4.97252 13.0029 5.28461 13.315 5.28461 13.717V14.431H4.74906C4.71263 14.431 4.67627 14.4338 4.64027 14.4394C4.61657 14.4386 4.59441 14.431 4.57054 14.431H3.04755C3.27805 13.9797 3.59684 13.5006 3.97919 13.0029ZM6.57888 13.0029H7.42684C7.82882 13.0029 8.14092 13.315 8.14092 13.717V14.431H7.78388C7.72472 14.4302 7.66569 14.4368 7.60815 14.4506C7.54742 14.4453 7.48884 14.431 7.42684 14.431H6.71277V13.717C6.71277 13.4661 6.65973 13.2275 6.57888 13.0029ZM9.56907 13.0029H10.2831C10.6851 13.0029 10.9972 13.315 10.9972 13.717V14.431H10.6402C10.581 14.4302 10.522 14.4368 10.4645 14.4506C10.4037 14.4453 10.3451 14.431 10.2831 14.431H9.56907V13.717C9.56907 13.6931 9.5615 13.6709 9.5607 13.6472C9.56626 13.6112 9.56906 13.5749 9.56907 13.5384V13.0029ZM12.4254 13.0029H13.1395C13.5414 13.0029 13.8535 13.315 13.8535 13.717V14.5649C13.629 14.4841 13.3903 14.431 13.1395 14.431H12.4254V13.717C12.4254 13.6984 12.4176 13.6823 12.417 13.664C12.4235 13.6224 12.4263 13.5804 12.4254 13.5384V13.0029ZM2.54546 15.8592H4.57054C4.97252 15.8592 5.28461 16.1713 5.28461 16.5733V17.2873H4.92757C4.85684 17.2862 4.78634 17.2956 4.71837 17.3152H4.71558C4.66561 17.3111 4.62154 17.2873 4.57054 17.2873H2.48409C2.44666 17.0371 2.41823 16.7852 2.4311 16.5203C2.44125 16.3112 2.49959 16.0829 2.54546 15.8592ZM6.71277 15.8592H7.42684C7.82882 15.8592 8.14092 16.1713 8.14092 16.5733V17.2873H7.78388C7.71315 17.2862 7.64265 17.2956 7.57468 17.3152C7.57375 17.3151 7.57282 17.3153 7.57189 17.3152C7.52191 17.3111 7.47785 17.2873 7.42684 17.2873H6.71277V16.5733C6.71277 16.5494 6.70519 16.5272 6.7044 16.5035C6.70996 16.4675 6.71275 16.4312 6.71277 16.3947V15.8592ZM9.56907 15.8592H10.2831C10.6851 15.8592 10.9972 16.1713 10.9972 16.5733V17.4212C10.7726 17.3404 10.534 17.2873 10.2831 17.2873H9.56907V16.5733C9.56907 16.5494 9.5615 16.5272 9.5607 16.5035C9.56626 16.4675 9.56906 16.4312 9.56907 16.3947V15.8592ZM12.4254 15.8592H13.1395C13.5414 15.8592 13.8535 16.1713 13.8535 16.5733V16.5984C13.479 17.2806 13.0078 17.9453 12.4254 18.5704V16.5733C12.4254 16.5494 12.4178 16.5272 12.417 16.5035C12.4226 16.4675 12.4254 16.4312 12.4254 16.3947V15.8592ZM3.00013 18.7155H4.57054C4.97252 18.7155 5.28461 19.0276 5.28461 19.4296V21.0055C4.83128 20.742 4.39192 20.4096 3.96525 19.9818C3.5617 19.5775 3.25176 19.1535 3.00013 18.7155ZM6.71277 18.7155H7.42684C7.82882 18.7155 8.14092 19.0276 8.14092 19.4296V21.4435C7.82853 21.5167 7.52387 21.5702 7.24274 21.5718C7.24182 21.5718 7.24089 21.5718 7.23996 21.5718C7.0585 21.5728 6.88731 21.5353 6.71277 21.5104V19.4296C6.71277 19.4057 6.70519 19.3835 6.7044 19.3598C6.70996 19.3238 6.71275 19.2875 6.71277 19.251V18.7155ZM9.56907 18.7155H10.2831C10.6851 18.7155 10.9972 19.0276 10.9972 19.4296V19.8954C10.495 20.3013 10.0168 20.635 9.56907 20.88V19.4296C9.56907 19.4057 9.5615 19.3835 9.5607 19.3598C9.56626 19.3238 9.56906 19.2875 9.56907 19.251V18.7155Z" fill="white"/>
</svg>
