<svg width="137" height="29" viewBox="0 0 137 29" fill="none" xmlns="http://www.w3.org/2000/svg">
<path d="M60.3637 28L60.694 28.3754L60.5523 28.5H60.3637V28ZM88.1635 3.53731L87.8332 3.16194L87.9748 3.03731H88.1635V3.53731ZM131.008 3.53731C131.008 2.06455 132.201 0.870643 133.674 0.870643C135.147 0.870643 136.341 2.06455 136.341 3.53731C136.341 5.01007 135.147 6.20398 133.674 6.20398C132.201 6.20398 131.008 5.01007 131.008 3.53731ZM74.2636 15.7687L73.9333 15.3933L73.9333 15.3933L74.2636 15.7687ZM0 27.5H60.3637V28.5H0V27.5ZM88.1635 3.03731H133.674V4.03731H88.1635V3.03731ZM60.0334 27.6246L73.9333 15.3933L74.5939 16.144L60.694 28.3754L60.0334 27.6246ZM73.9333 15.3933L87.8332 3.16194L88.4938 3.91267L74.5939 16.144L73.9333 15.3933Z" fill="url(#paint0_linear_498_68)"/>
<defs>
<linearGradient id="paint0_linear_498_68" x1="-1" y1="13.3104" x2="133.674" y2="13.3104" gradientUnits="userSpaceOnUse">
<stop stop-color="#1DBBF4"/>
<stop offset="1" stop-color="#1E73C9"/>
</linearGradient>
</defs>
</svg>
