<svg width="311" height="29" viewBox="0 0 311 29" fill="none" xmlns="http://www.w3.org/2000/svg">
<path d="M138.972 27.8555L139.303 28.7989L139.142 28.8555H138.972V27.8555ZM201.931 5.72177L201.599 4.77837L201.76 4.72177H201.931V5.72177ZM299.667 5.72177C299.667 2.77625 302.054 0.388441 305 0.388441C307.946 0.388441 310.333 2.77625 310.333 5.72177C310.333 8.66729 307.946 11.0551 305 11.0551C302.054 11.0551 299.667 8.66729 299.667 5.72177ZM0 26.8555H138.972V28.8555H0V26.8555ZM138.64 26.9121L201.599 4.77837L202.262 6.66517L139.303 28.7989L138.64 26.9121ZM201.931 4.72177H305V6.72177H201.931V4.72177Z" fill="url(#paint0_linear_212_11063)"/>
<defs>
<linearGradient id="paint0_linear_212_11063" x1="0" y1="27.8555" x2="305" y2="27.8555" gradientUnits="userSpaceOnUse">
<stop stop-color="#1DBBF4"/>
<stop offset="1" stop-color="#1E73C9"/>
</linearGradient>
</defs>
</svg>
