<svg width="209" height="880" viewBox="0 0 209 880" fill="none" xmlns="http://www.w3.org/2000/svg">
<path d="M103.667 463.349C103.1 463.349 102.66 464.971 102.503 465.553C100.773 471.991 99.9236 558.305 99.3889 575.463C98.6183 600.635 98.6812 602.854 94.6393 632.575C92.7207 646.648 96.385 661.509 96.8411 676.039C97.5331 698.014 98.0521 720.006 97.7847 741.982C97.5646 760.179 95.7717 778.345 95.3942 796.559C95.2684 802.179 97.3129 807.893 98.6812 813.481C103.525 833.159 103.761 852.931 99.6562 872.734C99.3103 874.403 97.25 876.418 95.6144 876.937C84.3225 880.463 72.8103 880.857 61.3297 878.228C54.6614 876.701 51.0914 866.941 56.1869 862.565C66.3937 853.797 66.2836 841.156 69.3976 829.696C71.4578 822.077 71.4735 814.347 68.6741 806.712C67.8878 804.556 67.2902 801.769 67.8878 799.676C72.543 783.446 66.4881 768.507 63.1854 753.253C58.8762 733.434 53.9537 713.741 50.1006 693.827C46.452 675.031 47.0338 655.92 50.3365 637.14C54.111 615.684 50.9656 594.905 46.452 574.172C41.3721 550.843 36.1193 527.545 30.7564 504.278C30.2846 502.232 28.7591 500.248 27.2808 498.706C25.9755 497.352 24.0253 496.722 22.4054 495.683C17.0111 492.236 9.9025 490.032 6.61557 485.026C-0.0369337 474.998 -0.493016 462.845 0.277605 450.551C1.04823 438.225 0.324786 425.805 0.387694 413.416C0.482056 390.59 0.387694 367.764 0.938137 344.954C1.29986 329.354 2.87255 313.785 3.36009 298.185C4.02062 277.374 4.35089 256.547 4.4767 235.721C4.53961 225.331 3.51736 214.926 3.56454 204.52C3.6589 183.631 13.4725 167.164 29.6084 160.616C32.1404 159.593 39.792 156.56 51.7917 152.625C61.5424 149.429 67.472 147.583 72.5902 141.505C74.4459 139.301 75.6255 137.192 76.3332 135.728C74.1314 136.72 71.4421 137.68 68.3281 138.31C59.6626 140.057 52.3338 138.31 48.2448 136.94C51.8935 133.839 57.2406 128.455 60.8736 120.332C62.6664 116.334 64.2706 111.139 65.2928 96.5461C66.2207 83.2284 66.1736 72.9804 65.8118 70.4775C63.7516 55.7902 59.4739 40.8039 65.9534 25.8333C69.8379 16.8289 74.7919 10.0914 84.8572 9.22557C86.1468 9.11538 87.4207 7.95047 88.5687 7.08467C90.3931 5.69938 91.9343 3.76312 93.9159 2.72415C112.647 -7.25625 143.943 11.7915 144.635 33.8145C144.824 39.9224 143.141 46.0775 142.701 52.2483C142.465 55.4911 143.031 58.7969 143.33 62.0713C143.472 63.6455 143.975 65.1882 144.053 66.7624C144.51 75.2788 144.824 86.062 145.563 95.3025C145.846 98.9232 146.617 107.691 150.501 117.451C154.339 127.117 159.733 133.98 163.586 138.168C158.978 139.175 152.169 140.057 144.101 138.923C139.335 138.262 135.278 137.05 132.07 135.822C133.833 138.168 135.667 142 140.25 145.75C145.292 149.875 157.208 154.458 171.67 158.081C183.355 163.418 187.246 165.689 192.958 170.5C202.426 180.055 205.326 192.367 205.53 205.433C205.876 228.243 204.288 251.085 204.807 273.895C205.357 298.688 207.811 323.435 208.581 348.228C209.242 369.637 208.691 391.078 208.66 412.518C208.644 425.112 207.795 437.769 208.723 450.299C209.619 462.625 208.503 474.227 202.998 485.073C200.859 489.276 197.871 490.772 196.959 491.511C191.486 495.903 181.468 500.421 179.298 499.666C178.071 505.711 177.819 506.876 175.413 518.1C168.635 549.694 166.449 558.997 163.681 570.457C158.161 593.315 155.062 616.251 159.12 639.848C163.649 666.09 160.897 692.048 155.078 717.707C150.407 738.282 145.029 758.668 140.499 779.274C139.43 784.107 140.531 789.475 140.641 794.591C140.719 797.976 141.742 801.722 140.735 804.698C136.725 816.551 139.115 827.901 141.915 839.408C143.943 847.752 145.547 855.812 152.467 861.935C157.94 866.784 155.062 876.638 148.095 878.228C136.63 880.857 125.055 880.668 113.811 876.937C111.892 876.308 109.784 873.395 109.344 871.191C105.051 849.719 106.199 828.578 111.97 807.374C114.109 799.534 113.732 790.75 113.527 782.438C112.788 754.229 111.153 726.035 110.807 697.825C110.665 685.909 112.568 673.913 114.156 662.06C116.185 646.822 115.745 632.04 112.096 616.928C108.652 602.713 109.816 591.268 109.816 585.963C109.816 555.314 107.095 524.727 105.931 494.093C105.459 481.484 105.051 471.378 104.815 465.632C104.547 464.53 104.17 463.365 103.698 463.365L103.667 463.349ZM185.179 431.472C185.887 431.613 186.595 431.739 187.303 431.881C188.168 427.568 189.945 423.192 189.693 418.941C189.048 408.205 187.601 397.501 186.28 386.812C183.827 367.04 180.855 347.315 178.81 327.496C176.828 308.275 176.026 288.928 174.108 269.692C173.243 260.971 170.899 252.423 169.185 243.56C168.053 244.158 167.55 244.237 167.439 244.489C155.566 273.517 151.115 302.829 163.429 333.163C173.211 357.248 180.351 382.215 183.434 408.3C184.346 415.966 184.613 423.727 185.179 431.44V431.472ZM21.4933 431.802C22.3583 431.724 23.239 431.645 24.1039 431.582C24.3084 427.631 24.4499 423.695 24.733 419.744C26.8404 390.385 34.295 362.491 44.9107 335.336C50.5567 320.869 55.3062 305.568 52.9786 289.873C50.7769 275.028 45.9487 260.609 42.2057 246.016C41.9698 245.087 41.1048 244.331 40.0668 242.82C35.679 265.835 30.8194 287.811 31.2754 310.637C31.4484 319.609 31.0238 328.693 29.9386 337.587C26.7303 364.112 22.8615 390.558 19.7319 417.099C19.1657 421.853 20.8485 426.907 21.4933 431.818V431.802ZM180.587 488.363C191.171 483.766 194.584 473.833 189.787 460.956C182.726 469.079 186.548 480.256 180.587 488.363ZM19.2286 461.224C14.542 473.692 18.0333 483.908 28.5861 488.316C22.4526 480.225 26.7146 468.875 19.2286 461.224Z" fill="#1DBBF4" fill-opacity="0.5"/>
</svg>
