<svg width="262" height="878" viewBox="0 0 262 878" fill="none" xmlns="http://www.w3.org/2000/svg">
<path d="M56.5185 267.876C54.7201 275.041 53.1445 282.269 51.0915 289.353C47.9722 300.14 44.089 310.703 41.3834 321.601C39.7283 328.289 38.5983 335.5 39.0758 342.331C40.2853 359.805 35.7018 375.834 30.1634 391.846C25.9619 403.998 22.6994 416.373 22.8585 429.558C22.9381 436.246 24.9275 441.631 29.0812 446.555C30.7682 448.557 32.487 451.273 32.6939 453.799C33.8716 468.032 34.5878 482.297 35.4472 496.562C35.5108 497.547 35.1448 498.659 35.4472 499.517C37.6116 505.49 36.4817 507.936 30.8955 507.968C26.7099 507.984 22.3811 507.825 18.3546 506.745C13.5642 505.474 10.063 502.742 7.40518 497.42C0.243479 483.06 -1.2207 468.715 0.880065 452.576C2.88534 437.167 1.77129 421.202 0.97555 405.539C-0.902406 368.431 0.434436 331.767 9.74464 295.596C12.3547 285.446 11.6704 274.405 12.9754 263.826C15.5218 243.063 18.291 222.317 21.1556 201.602C22.7312 190.308 25.8823 179.585 32.8053 170.435C35.7973 166.48 40.1739 162.937 53.7015 156.297C85.6427 140.634 102.974 141.301 106.459 129.737C107.08 127.656 108.974 119.459 105.091 112.93C104.072 111.215 103.022 110.198 102.56 109.753C98.8043 106.147 94.6983 98.5221 92.7726 81.0005C92.6134 80.9529 92.3747 80.8734 92.0883 80.7463C88.6507 79.1578 88.3164 73.9792 86.8841 65.3693C85.213 55.3456 84.0194 52.5021 85.8178 50.8182C87.1228 49.5951 89.2077 49.738 90.831 50.1034C88.9849 33.106 94.937 16.7282 106.905 7.65762C117.918 -0.682218 130.427 -0.0944584 133.531 0.080281C157.132 1.39877 169.212 17.3477 170.755 49.4998C171.965 49.2933 173.811 49.1662 174.862 50.3099C176.039 51.5649 175.546 53.5982 174.941 57.2677C174.257 61.4932 173.254 68.9911 172.84 72.5177C172.522 75.2023 172.299 77.6328 170.469 79.3008C169.53 80.1427 168.511 80.508 167.795 80.6828C166.681 97.1559 162.655 104.67 158.979 108.45C158.453 108.991 157.419 109.991 156.4 111.691C152.835 117.712 153.09 126.655 157.18 132.358C158.915 134.773 160.92 136.028 161.732 136.52C175.387 144.876 193.148 150.547 210.177 156.869C224.357 162.143 232.744 172.564 237.168 186.829C239.524 194.422 240.622 202.508 241.752 210.451C244.441 229.18 246.797 247.94 249.295 266.701C249.661 269.497 249.948 271.628 250.362 275.072C252.828 295.614 255.709 309.989 258.351 327.431C262.059 351.926 262.043 376.533 261.009 401.203C260.595 411.083 259.274 420.98 259.481 430.845C259.72 442.918 261.407 454.943 261.868 467.016C262.075 472.258 261.359 477.738 260.038 482.806C258.733 487.81 255.757 492.289 254.181 497.246C251.921 504.331 246.797 506.3 240.622 506.999C237.964 507.301 235.306 507.682 232.633 507.968C226.123 508.635 224.691 505.903 226.123 499.454C227.269 494.291 226.235 488.62 226.569 483.187C227.222 472.957 228.097 462.742 229.099 452.544C229.259 450.876 230.182 448.859 231.375 447.794C240.16 439.995 240.065 429.494 238.235 419.344C236.182 407.922 232.967 396.643 229.386 385.619C224.802 371.529 222.145 357.406 222.654 342.347C222.94 334.293 221.333 325.938 219.264 318.09C214.872 301.426 209.62 285.001 204.654 268.289C195.233 290.021 189.742 311.911 195.042 336.39C201.901 368.018 207.439 399.979 212.659 431.957C216.431 455.118 216.797 478.66 214.681 502.075C212.357 527.777 209.015 553.369 206.787 579.087C204.845 601.66 204.973 624.265 208.601 646.727C212.612 671.508 210.765 696.099 207.137 720.817C203.27 747.123 199.959 773.556 197.652 800.053C195.996 819.195 202.474 835.7 217.068 848.202C221.047 851.617 224.93 855.43 227.954 859.766C233.524 867.741 230.866 873.682 221.874 876.255C208.903 879.973 197.27 876.049 186.066 869.917C184.172 868.885 182.819 865.533 182.373 863.023C181.418 857.701 178.952 854.286 174.098 852.475C169.037 850.584 167.015 847.058 168.448 841.164C175.068 813.873 173.27 786.122 171.122 758.576C169.944 743.406 166.522 728.362 163.275 713.478C159.042 694.066 160.49 674.956 164.453 655.861C165.886 648.935 164.915 642.819 162.623 635.973C159.249 625.838 156.591 614.877 156.464 604.25C156.209 583.249 153.329 563.17 147.217 543.075C140.231 520.025 136.157 496.102 135.44 471.734C135.44 471.686 135.44 471.352 135.44 470.908C135.393 469.494 135.218 468.096 135.058 467.461C134.645 465.824 132.862 463.235 130.666 463.378C128.772 463.489 126.862 465.634 126.783 468.541C126.512 473.894 125.907 482.329 124.364 492.607C123.011 501.582 121.865 505.347 117.075 527.396C114.99 537.007 112.905 546.617 110.963 556.244C108.863 566.617 107.16 577.133 106.014 587.665C104.772 599.071 104.709 610.636 103.467 622.041C102.926 626.934 101.383 632.033 99.0749 636.322C95.685 642.645 95.5259 648.776 97.0378 655.528C101.844 676.83 102.353 697.942 96.9105 719.482C87.7753 755.59 86.9318 792.444 90.9583 829.473C91.4198 833.651 92.4861 837.765 93.2978 841.895C94.2845 846.979 92.8044 850.791 87.9185 852.38C82.412 854.175 79.9134 858.146 79.2768 863.912C78.8311 867.979 76.3166 869.758 72.7835 871.394C64.285 875.35 55.9297 879.099 46.333 877.304C44.0731 876.875 41.7813 876.668 39.5373 876.176C31.1979 874.317 28.4606 867.995 33.1873 860.545C35.4949 856.907 38.3755 853.333 41.7176 850.791C62.6298 834.826 66.3698 812.555 63.1709 787.662C59.3036 757.48 54.2108 727.409 51.744 697.1C50.264 678.99 51.744 660.373 53.813 642.232C56.6776 617.133 56.1365 592.24 53.797 567.237C51.0915 538.325 47.3038 509.461 46.1579 480.486C44.6937 443.489 51.6326 407.573 62.6935 372.355C67.5316 356.946 69.9666 340.679 73.0222 324.698C75.9187 309.576 69.9188 297.836 68.5661 293.436C65.0807 282.141 60.2425 273.563 56.4866 267.908L56.5185 267.876ZM238.298 472.75C237.614 472.75 236.914 472.782 236.229 472.798C234.892 481.344 233.556 489.891 232.171 498.802C238.346 498.087 239.556 493.163 240.638 488.652C241.975 483.044 241.99 477.421 238.314 472.734L238.298 472.75ZM29.5587 498.437C28.0945 489.637 26.6622 481.17 25.0707 471.622C20.1848 477.087 19.1663 486.602 22.2378 492.512C23.7975 495.53 25.007 499.994 29.5587 498.453V498.437Z" fill="#8CDBF8"/>
</svg>
