<svg width="22" height="8" viewBox="0 0 22 8" fill="none" xmlns="http://www.w3.org/2000/svg">
<path d="M0.646447 3.69405C0.451184 3.88932 0.451184 4.2059 0.646447 4.40116L3.82843 7.58314C4.02369 7.7784 4.34027 7.7784 4.53553 7.58314C4.7308 7.38788 4.7308 7.0713 4.53553 6.87603L1.70711 4.04761L4.53553 1.21918C4.7308 1.02392 4.7308 0.707336 4.53553 0.512074C4.34027 0.316811 4.02369 0.316811 3.82843 0.512074L0.646447 3.69405ZM21.3536 4.40116C21.5488 4.2059 21.5488 3.88932 21.3536 3.69405L18.1716 0.512074C17.9763 0.316811 17.6597 0.316811 17.4645 0.512074C17.2692 0.707336 17.2692 1.02392 17.4645 1.21918L20.2929 4.04761L17.4645 6.87603C17.2692 7.0713 17.2692 7.38788 17.4645 7.58314C17.6597 7.7784 17.9763 7.7784 18.1716 7.58314L21.3536 4.40116ZM1 4.54761H21V3.54761H1V4.54761Z" fill="white" fill-opacity="0.2"/>
</svg>
