<svg width="156" height="12" viewBox="0 0 156 12" fill="none" xmlns="http://www.w3.org/2000/svg">
<path d="M48.5 0.5L48.7531 0.0687703L48.6359 0H48.5V0.5ZM61.8707 8.34647L61.6176 8.7777L61.7348 8.84647H61.8707V8.34647ZM150.553 8.34647C150.553 9.81923 151.747 11.0131 153.219 11.0131C154.692 11.0131 155.886 9.81923 155.886 8.34647C155.886 6.87371 154.692 5.67981 153.219 5.67981C151.747 5.67981 150.553 6.87371 150.553 8.34647ZM0 1H48.5V0H0V1ZM48.2469 0.93123L61.6176 8.7777L62.1238 7.91524L48.7531 0.0687703L48.2469 0.93123ZM61.8707 8.84647H153.219V7.84647H61.8707V8.84647Z" fill="url(#paint0_linear_498_67)"/>
<defs>
<linearGradient id="paint0_linear_498_67" x1="1.19093e-08" y1="5.65048" x2="154.765" y2="5.65048" gradientUnits="userSpaceOnUse">
<stop stop-color="#1DBBF4"/>
<stop offset="1" stop-color="#1E73C9"/>
</linearGradient>
</defs>
</svg>
