<svg width="277" height="13" viewBox="0 0 277 13" fill="none" xmlns="http://www.w3.org/2000/svg">
<path d="M197.9 1.56055L198.112 0.583224L198.008 0.560547H197.9V1.56055ZM222.558 6.90316L222.347 7.88049L222.451 7.90316H222.558V6.90316ZM265.667 6.90316C265.667 9.84868 268.054 12.2365 271 12.2365C273.946 12.2365 276.333 9.84868 276.333 6.90316C276.333 3.95764 273.946 1.56983 271 1.56983C268.054 1.56983 265.667 3.95764 265.667 6.90316ZM0 2.56055H197.9V0.560547H0V2.56055ZM197.689 2.53787L222.347 7.88049L222.77 5.92584L198.112 0.583224L197.689 2.53787ZM222.558 7.90316H271V5.90316H222.558V7.90316Z" fill="url(#paint0_linear_212_11064)"/>
<defs>
<linearGradient id="paint0_linear_212_11064" x1="0" y1="1.56055" x2="271" y2="1.56055" gradientUnits="userSpaceOnUse">
<stop stop-color="#1DBBF4"/>
<stop offset="1" stop-color="#1E73C9"/>
</linearGradient>
</defs>
</svg>
